<svg xmlns="http://www.w3.org/2000/svg" viewBox="0 0 1600 1848" width="1600" font-family="system-ui, -apple-system, sans-serif">
<defs><marker id="arrc" viewBox="0 0 10 10" refX="8" refY="5" markerWidth="7" markerHeight="7" orient="auto-start-reverse"><path d="M 0 1 L 9 5 L 0 9 z" fill="#d08c4e"/></marker><marker id="arrr" viewBox="0 0 10 10" refX="8" refY="5" markerWidth="7" markerHeight="7" orient="auto-start-reverse"><path d="M 0 1 L 9 5 L 0 9 z" fill="#8a7a66"/></marker></defs>
<rect x="0" y="0" width="1600" height="1848" fill="#f7f2e9"/>
<text x="110.3448275862069" y="44" font-size="26" font-weight="700" fill="#000000">Channel turn: the 7-stage admission pipeline</text>
<text x="110.3448275862069" y="74" font-size="15" fill="#000000">ingest -&gt; classify -&gt; preflight -&gt; resolve -&gt; assemble -&gt; dispatch -&gt; finalize</text>
<line x1="283" y1="110" x2="283" y2="1766" stroke="#3a2f26" stroke-width="2" stroke-dasharray="8 6"/>
<rect x="138" y="82" width="290" height="56" rx="10" fill="#ffffff" stroke="#3a2f26" stroke-width="1.5"/>
<text x="283" y="116" text-anchor="middle" font-size="16" font-weight="600" fill="#000000">Channel adapter</text>
<line x1="628" y1="110" x2="628" y2="1766" stroke="#3a2f26" stroke-width="2" stroke-dasharray="8 6"/>
<rect x="483" y="82" width="290" height="56" rx="10" fill="#ffffff" stroke="#3a2f26" stroke-width="1.5"/>
<text x="628" y="116" text-anchor="middle" font-size="16" font-weight="600" fill="#000000">runChannelTurn</text>
<line x1="972" y1="110" x2="972" y2="1766" stroke="#3a2f26" stroke-width="2" stroke-dasharray="8 6"/>
<rect x="828" y="82" width="290" height="56" rx="10" fill="#ffffff" stroke="#3a2f26" stroke-width="1.5"/>
<text x="972" y="116" text-anchor="middle" font-size="16" font-weight="600" fill="#000000">SessionResolver</text>
<line x1="1317" y1="110" x2="1317" y2="1766" stroke="#3a2f26" stroke-width="2" stroke-dasharray="8 6"/>
<rect x="1172" y="82" width="290" height="56" rx="10" fill="#ffffff" stroke="#3a2f26" stroke-width="1.5"/>
<text x="1317" y="116" text-anchor="middle" font-size="16" font-weight="600" fill="#000000">AgentSession</text>
<line x1="283" y1="232" x2="618" y2="232" stroke="#d08c4e" stroke-width="2" marker-end="url(#arrc)"/>
<circle cx="377" cy="218" r="11" fill="#ffffff" stroke="#d08c4e" stroke-width="1.5"/>
<text x="377" y="223" text-anchor="middle" font-size="12" font-weight="700" fill="#000000">1</text>
<text x="395" y="223" font-size="14" fill="#000000">inbound raw message</text>
<line x1="628" y1="306" x2="293" y2="306" stroke="#d08c4e" stroke-width="2" marker-end="url(#arrc)"/>
<circle cx="377" cy="292" r="11" fill="#ffffff" stroke="#d08c4e" stroke-width="1.5"/>
<text x="377" y="297" text-anchor="middle" font-size="12" font-weight="700" fill="#000000">2</text>
<text x="395" y="297" font-size="14" fill="#000000">adapter.ingest(raw)</text>
<rect x="138" y="348" width="1324" height="44" rx="8" fill="#d08c4e" fill-opacity="0.13" stroke="#d08c4e" stroke-width="1"/>
<text x="800" y="375" text-anchor="middle" font-size="14" fill="#000000">Null ingest result -&gt; message dropped, no turn started.</text>
<line x1="628" y1="469" x2="293" y2="469" stroke="#d08c4e" stroke-width="2" marker-end="url(#arrc)"/>
<circle cx="377" cy="455" r="11" fill="#ffffff" stroke="#d08c4e" stroke-width="1.5"/>
<text x="377" y="460" text-anchor="middle" font-size="12" font-weight="700" fill="#000000">3</text>
<text x="395" y="460" font-size="14" fill="#000000">adapter.classify(input)</text>
<line x1="283" y1="543" x2="618" y2="543" stroke="#8a7a66" stroke-width="2" stroke-dasharray="7 5" marker-end="url(#arrr)"/>
<circle cx="377" cy="529" r="11" fill="#ffffff" stroke="#8a7a66" stroke-width="1.5"/>
<text x="377" y="534" text-anchor="middle" font-size="12" font-weight="700" fill="#000000">4</text>
<text x="395" y="534" font-size="14" fill="#000000">event class</text>
<rect x="138" y="585" width="1324" height="44" rx="8" fill="#d08c4e" fill-opacity="0.13" stroke="#d08c4e" stroke-width="1"/>
<text x="800" y="612" text-anchor="middle" font-size="14" fill="#000000">canStartAgentTurn=false -&gt; handled without a turn (reactions, edits).</text>
<path d="M 628 706 h 61 v 36 H 638" fill="none" stroke="#d08c4e" stroke-width="2" marker-end="url(#arrc)"/>
<circle cx="658" cy="690" r="11" fill="#ffffff" stroke="#d08c4e" stroke-width="1.5"/>
<text x="658" y="695" text-anchor="middle" font-size="12" font-weight="700" fill="#000000">5</text>
<text x="698" y="711" font-size="14" fill="#000000">preflight verdict</text>
<rect x="138" y="748" width="1324" height="44" rx="8" fill="#d08c4e" fill-opacity="0.13" stroke="#d08c4e" stroke-width="1"/>
<text x="800" y="775" text-anchor="middle" font-size="14" fill="#000000">Verdict: dispatch | drop | handled | observeOnly.</text>
<line x1="628" y1="869" x2="962" y2="869" stroke="#d08c4e" stroke-width="2" marker-end="url(#arrc)"/>
<circle cx="722" cy="855" r="11" fill="#ffffff" stroke="#d08c4e" stroke-width="1.5"/>
<text x="722" y="860" text-anchor="middle" font-size="12" font-weight="700" fill="#000000">6</text>
<text x="740" y="860" font-size="14" fill="#000000">resolveTurn(msg)</text>
<path d="M 972 943 h 61 v 36 H 982" fill="none" stroke="#d08c4e" stroke-width="2" marker-end="url(#arrc)"/>
<circle cx="1003" cy="927" r="11" fill="#ffffff" stroke="#d08c4e" stroke-width="1.5"/>
<text x="1003" y="932" text-anchor="middle" font-size="12" font-weight="700" fill="#000000">7</text>
<text x="1043" y="948" font-size="14" fill="#000000">resolveAgentRoute(channel, peer)</text>
<line x1="972" y1="1018" x2="638" y2="1018" stroke="#8a7a66" stroke-width="2" stroke-dasharray="7 5" marker-end="url(#arrr)"/>
<circle cx="722" cy="1004" r="11" fill="#ffffff" stroke="#8a7a66" stroke-width="1.5"/>
<text x="722" y="1009" text-anchor="middle" font-size="12" font-weight="700" fill="#000000">8</text>
<text x="740" y="1009" font-size="14" fill="#000000">{agentId, sessionKey}</text>
<path d="M 628 1092 h 61 v 36 H 638" fill="none" stroke="#d08c4e" stroke-width="2" marker-end="url(#arrc)"/>
<circle cx="658" cy="1076" r="11" fill="#ffffff" stroke="#d08c4e" stroke-width="1.5"/>
<text x="658" y="1081" text-anchor="middle" font-size="12" font-weight="700" fill="#000000">9</text>
<text x="698" y="1097" font-size="14" fill="#000000">assembleResolvedChannelTurn()</text>
<rect x="138" y="1134" width="1324" height="44" rx="8" fill="#d08c4e" fill-opacity="0.13" stroke="#d08c4e" stroke-width="1"/>
<text x="800" y="1161" text-anchor="middle" font-size="14" fill="#000000">Message bound to a session key before the agent ever runs.</text>
<line x1="628" y1="1255" x2="1307" y2="1255" stroke="#d08c4e" stroke-width="2" marker-end="url(#arrc)"/>
<circle cx="894" cy="1241" r="11" fill="#ffffff" stroke="#d08c4e" stroke-width="1.5"/>
<text x="894" y="1246" text-anchor="middle" font-size="12" font-weight="700" fill="#000000">10</text>
<text x="912" y="1246" font-size="14" fill="#000000">runPreparedChannelTurnCore()</text>
<path d="M 1317 1330 h 61 v 36 H 1327" fill="none" stroke="#d08c4e" stroke-width="2" marker-end="url(#arrc)"/>
<circle cx="1348" cy="1314" r="11" fill="#ffffff" stroke="#d08c4e" stroke-width="1.5"/>
<text x="1348" y="1319" text-anchor="middle" font-size="12" font-weight="700" fill="#000000">11</text>
<text x="1388" y="1335" font-size="14" fill="#000000">guards: echo drop, bot-loop drop</text>
<path d="M 1317 1404 h 61 v 36 H 1327" fill="none" stroke="#d08c4e" stroke-width="2" marker-end="url(#arrc)"/>
<circle cx="1348" cy="1388" r="11" fill="#ffffff" stroke="#d08c4e" stroke-width="1.5"/>
<text x="1348" y="1393" text-anchor="middle" font-size="12" font-weight="700" fill="#000000">12</text>
<text x="1388" y="1409" font-size="14" fill="#000000">recordInboundSession() — persist first</text>
<rect x="138" y="1446" width="1324" height="44" rx="8" fill="#d08c4e" fill-opacity="0.13" stroke="#d08c4e" stroke-width="1"/>
<text x="800" y="1473" text-anchor="middle" font-size="14" fill="#000000">Inbound message persisted to the session store BEFORE the agent runs.</text>
<path d="M 1317 1567 h 61 v 36 H 1327" fill="none" stroke="#d08c4e" stroke-width="2" marker-end="url(#arrc)"/>
<circle cx="1348" cy="1551" r="11" fill="#ffffff" stroke="#d08c4e" stroke-width="1.5"/>
<text x="1348" y="1556" text-anchor="middle" font-size="12" font-weight="700" fill="#000000">13</text>
<text x="1388" y="1572" font-size="14" fill="#000000">runDispatch() — agent execution</text>
<line x1="1317" y1="1641" x2="638" y2="1641" stroke="#8a7a66" stroke-width="2" stroke-dasharray="7 5" marker-end="url(#arrr)"/>
<circle cx="894" cy="1627" r="11" fill="#ffffff" stroke="#8a7a66" stroke-width="1.5"/>
<text x="894" y="1632" text-anchor="middle" font-size="12" font-weight="700" fill="#000000">14</text>
<text x="912" y="1632" font-size="14" fill="#000000">turn result</text>
<line x1="628" y1="1716" x2="293" y2="1716" stroke="#d08c4e" stroke-width="2" marker-end="url(#arrc)"/>
<circle cx="377" cy="1702" r="11" fill="#ffffff" stroke="#d08c4e" stroke-width="1.5"/>
<text x="377" y="1707" text-anchor="middle" font-size="12" font-weight="700" fill="#000000">15</text>
<text x="395" y="1707" font-size="14" fill="#000000">adapter.onFinalize(result)</text>
</svg>