<svg xmlns="http://www.w3.org/2000/svg" viewBox="0 0 1600 1062" width="1600" font-family="system-ui, -apple-system, sans-serif">
<defs><marker id="arrc" viewBox="0 0 10 10" refX="8" refY="5" markerWidth="7" markerHeight="7" orient="auto-start-reverse"><path d="M 0 1 L 9 5 L 0 9 z" fill="#d08c4e"/></marker><marker id="arrr" viewBox="0 0 10 10" refX="8" refY="5" markerWidth="7" markerHeight="7" orient="auto-start-reverse"><path d="M 0 1 L 9 5 L 0 9 z" fill="#8a7a66"/></marker></defs>
<rect x="0" y="0" width="1600" height="1062" fill="#f7f2e9"/>
<text x="110.3448275862069" y="44" font-size="26" font-weight="700" fill="#000000">Qwen Code: session persistence and memory</text>
<text x="110.3448275862069" y="74" font-size="15" fill="#000000">per-query extraction, gated dream consolidation, two-phase recall</text>
<line x1="283" y1="110" x2="283" y2="979" stroke="#3a2f26" stroke-width="2" stroke-dasharray="8 6"/>
<rect x="138" y="82" width="290" height="56" rx="10" fill="#ffffff" stroke="#3a2f26" stroke-width="1.5"/>
<text x="283" y="116" text-anchor="middle" font-size="16" font-weight="600" fill="#000000">LlmClient</text>
<line x1="628" y1="110" x2="628" y2="979" stroke="#3a2f26" stroke-width="2" stroke-dasharray="8 6"/>
<rect x="483" y="82" width="290" height="56" rx="10" fill="#ffffff" stroke="#3a2f26" stroke-width="1.5"/>
<text x="628" y="116" text-anchor="middle" font-size="16" font-weight="600" fill="#000000">MemoryManager</text>
<line x1="972" y1="110" x2="972" y2="979" stroke="#3a2f26" stroke-width="2" stroke-dasharray="8 6"/>
<rect x="828" y="82" width="290" height="56" rx="10" fill="#ffffff" stroke="#3a2f26" stroke-width="1.5"/>
<text x="972" y="116" text-anchor="middle" font-size="16" font-weight="600" fill="#000000">ExtractAgent</text>
<line x1="1317" y1="110" x2="1317" y2="979" stroke="#3a2f26" stroke-width="2" stroke-dasharray="8 6"/>
<rect x="1172" y="82" width="290" height="56" rx="10" fill="#ffffff" stroke="#3a2f26" stroke-width="1.5"/>
<text x="1317" y="116" text-anchor="middle" font-size="16" font-weight="600" fill="#000000">RecallEngine</text>
<line x1="283" y1="232" x2="618" y2="232" stroke="#d08c4e" stroke-width="2" marker-end="url(#arrc)"/>
<circle cx="377" cy="218" r="11" fill="#ffffff" stroke="#d08c4e" stroke-width="1.5"/>
<text x="377" y="223" text-anchor="middle" font-size="12" font-weight="700" fill="#000000">1</text>
<text x="395" y="223" font-size="14" fill="#000000">schedule extraction (every user query)</text>
<line x1="628" y1="306" x2="962" y2="306" stroke="#d08c4e" stroke-width="2" marker-end="url(#arrc)"/>
<circle cx="722" cy="292" r="11" fill="#ffffff" stroke="#d08c4e" stroke-width="1.5"/>
<text x="722" y="297" text-anchor="middle" font-size="12" font-weight="700" fill="#000000">2</text>
<text x="740" y="297" font-size="14" fill="#000000">fork over extract-cursor range</text>
<line x1="972" y1="381" x2="638" y2="381" stroke="#8a7a66" stroke-width="2" stroke-dasharray="7 5" marker-end="url(#arrr)"/>
<circle cx="722" cy="367" r="11" fill="#ffffff" stroke="#8a7a66" stroke-width="1.5"/>
<text x="722" y="372" text-anchor="middle" font-size="12" font-weight="700" fill="#000000">3</text>
<text x="740" y="372" font-size="14" fill="#000000">write facts (frontmatter + keywords)</text>
<rect x="138" y="422" width="1324" height="44" rx="8" fill="#d08c4e" fill-opacity="0.13" stroke="#d08c4e" stroke-width="1"/>
<text x="800" y="449" text-anchor="middle" font-size="14" fill="#000000">three-layer file memory</text>
<line x1="283" y1="543" x2="618" y2="543" stroke="#d08c4e" stroke-width="2" marker-end="url(#arrc)"/>
<circle cx="377" cy="529" r="11" fill="#ffffff" stroke="#d08c4e" stroke-width="1.5"/>
<text x="377" y="534" text-anchor="middle" font-size="12" font-weight="700" fill="#000000">4</text>
<text x="395" y="534" font-size="14" fill="#000000">schedule dream (per query)</text>
<path d="M 628 618 h 61 v 36 H 638" fill="none" stroke="#d08c4e" stroke-width="2" marker-end="url(#arrc)"/>
<circle cx="658" cy="602" r="11" fill="#ffffff" stroke="#d08c4e" stroke-width="1.5"/>
<text x="658" y="607" text-anchor="middle" font-size="12" font-weight="700" fill="#000000">5</text>
<text x="698" y="623" font-size="14" fill="#000000">gate: &gt;=24h, &gt;=5 sessions, lock file</text>
<line x1="283" y1="692" x2="1307" y2="692" stroke="#d08c4e" stroke-width="2" marker-end="url(#arrc)"/>
<circle cx="722" cy="678" r="11" fill="#ffffff" stroke="#d08c4e" stroke-width="1.5"/>
<text x="722" y="683" text-anchor="middle" font-size="12" font-weight="700" fill="#000000">6</text>
<text x="740" y="683" font-size="14" fill="#000000">beginManagedAutoMemoryRecall</text>
<path d="M 1317 767 h 61 v 36 H 1327" fill="none" stroke="#d08c4e" stroke-width="2" marker-end="url(#arrc)"/>
<circle cx="1348" cy="751" r="11" fill="#ffffff" stroke="#d08c4e" stroke-width="1.5"/>
<text x="1348" y="756" text-anchor="middle" font-size="12" font-weight="700" fill="#000000">7</text>
<text x="1388" y="772" font-size="14" fill="#000000">fast path &lt;=2 docs; selector over &lt;=200 candidates</text>
<line x1="1317" y1="841" x2="293" y2="841" stroke="#8a7a66" stroke-width="2" stroke-dasharray="7 5" marker-end="url(#arrr)"/>
<circle cx="722" cy="827" r="11" fill="#ffffff" stroke="#8a7a66" stroke-width="1.5"/>
<text x="722" y="832" text-anchor="middle" font-size="12" font-weight="700" fill="#000000">8</text>
<text x="740" y="832" font-size="14" fill="#000000">&lt;system-reminder&gt;, cross-turn dedup</text>
<rect x="138" y="883" width="1324" height="44" rx="8" fill="#d08c4e" fill-opacity="0.13" stroke="#d08c4e" stroke-width="1"/>
<text x="800" y="910" text-anchor="middle" font-size="14" fill="#000000">no vector memory</text>
</svg>