<svg xmlns="http://www.w3.org/2000/svg" viewBox="0 0 1600 1130" width="1600" font-family="system-ui, -apple-system, sans-serif">
<defs><marker id="arrc" viewBox="0 0 10 10" refX="8" refY="5" markerWidth="7" markerHeight="7" orient="auto-start-reverse"><path d="M 0 1 L 9 5 L 0 9 z" fill="#d08c4e"/></marker><marker id="arrr" viewBox="0 0 10 10" refX="8" refY="5" markerWidth="7" markerHeight="7" orient="auto-start-reverse"><path d="M 0 1 L 9 5 L 0 9 z" fill="#8a7a66"/></marker></defs><rect x="0" y="0" width="1600" height="1130" fill="#f7f2e9"/>
<text x="90.78014184397163" y="44" font-size="26" font-weight="700" fill="#000000">Skills: three activation paths</text>
<text x="90.78014184397163" y="74" font-size="15" fill="#000000">progressive disclosure, trigger injection, invoke_skill tool</text>
<line x1="233" y1="110" x2="233" y2="1062" stroke="#3a2f26" stroke-width="2" stroke-dasharray="8 6"/>
<rect x="113" y="82" width="238" height="56" rx="10" fill="#ffffff" stroke="#3a2f26" stroke-width="1.5"/>
<text x="233" y="116" text-anchor="middle" font-size="16" font-weight="600" fill="#000000">LocalConversation</text>
<line x1="516" y1="110" x2="516" y2="1062" stroke="#3a2f26" stroke-width="2" stroke-dasharray="8 6"/>
<rect x="397" y="82" width="238" height="56" rx="10" fill="#ffffff" stroke="#3a2f26" stroke-width="1.5"/>
<text x="516" y="116" text-anchor="middle" font-size="16" font-weight="600" fill="#000000">AgentContext</text>
<line x1="800" y1="110" x2="800" y2="1062" stroke="#3a2f26" stroke-width="2" stroke-dasharray="8 6"/>
<rect x="681" y="82" width="238" height="56" rx="10" fill="#ffffff" stroke="#3a2f26" stroke-width="1.5"/>
<text x="800" y="116" text-anchor="middle" font-size="16" font-weight="600" fill="#000000">SkillCatalog</text>
<line x1="1084" y1="110" x2="1084" y2="1062" stroke="#3a2f26" stroke-width="2" stroke-dasharray="8 6"/>
<rect x="965" y="82" width="238" height="56" rx="10" fill="#ffffff" stroke="#3a2f26" stroke-width="1.5"/>
<text x="1084" y="116" text-anchor="middle" font-size="16" font-weight="600" fill="#000000">Model</text>
<line x1="1367" y1="110" x2="1367" y2="1062" stroke="#3a2f26" stroke-width="2" stroke-dasharray="8 6"/>
<rect x="1248" y="82" width="238" height="56" rx="10" fill="#ffffff" stroke="#3a2f26" stroke-width="1.5"/>
<text x="1367" y="116" text-anchor="middle" font-size="16" font-weight="600" fill="#000000">invoke_skill</text>
<rect x="113" y="163" width="1373" height="44" rx="8" fill="#d08c4e" fill-opacity="0.13" stroke="#d08c4e" stroke-width="1"/>
<text x="800" y="190" text-anchor="middle" font-size="14" fill="#000000">Path 1: progressive disclosure — skills listed in &lt;available_skills&gt;, read on demand</text>
<line x1="233" y1="263" x2="506" y2="263" stroke="#d08c4e" stroke-width="2" marker-end="url(#arrc)"/>
<circle cx="296" cy="249" r="11" fill="#ffffff" stroke="#d08c4e" stroke-width="1.5"/>
<text x="296" y="254" text-anchor="middle" font-size="12" font-weight="700" fill="#000000">1</text>
<text x="314" y="254" font-size="14" fill="#000000">prepare_llm_messages(view): get_system_message_suffix()</text>
<path d="M 516 325 h 50 v 29 H 526" fill="none" stroke="#d08c4e" stroke-width="2" marker-end="url(#arrc)"/>
<circle cx="541" cy="309" r="11" fill="#ffffff" stroke="#d08c4e" stroke-width="1.5"/>
<text x="541" y="314" text-anchor="middle" font-size="12" font-weight="700" fill="#000000">2</text>
<text x="576" y="330" font-size="14" fill="#000000">_resolve_dynamic_data(): render &lt;available_skills&gt;</text>
<line x1="516" y1="386" x2="790" y2="386" stroke="#d08c4e" stroke-width="2" marker-end="url(#arrc)"/>
<circle cx="580" cy="372" r="11" fill="#ffffff" stroke="#d08c4e" stroke-width="1.5"/>
<text x="580" y="377" text-anchor="middle" font-size="12" font-weight="700" fill="#000000">3</text>
<text x="598" y="377" font-size="14" fill="#000000">list AgentSkills skills (desc truncated to 1024 chars)</text>
<line x1="800" y1="447" x2="526" y2="447" stroke="#8a7a66" stroke-width="2" stroke-dasharray="7 5" marker-end="url(#arrr)"/>
<circle cx="580" cy="433" r="11" fill="#ffffff" stroke="#8a7a66" stroke-width="1.5"/>
<text x="580" y="438" text-anchor="middle" font-size="12" font-weight="700" fill="#000000">4</text>
<text x="598" y="438" font-size="14" fill="#000000">Skill list</text>
<line x1="516" y1="508" x2="1074" y2="508" stroke="#d08c4e" stroke-width="2" marker-end="url(#arrc)"/>
<circle cx="722" cy="494" r="11" fill="#ffffff" stroke="#d08c4e" stroke-width="1.5"/>
<text x="722" y="499" text-anchor="middle" font-size="12" font-weight="700" fill="#000000">5</text>
<text x="740" y="499" font-size="14" fill="#000000">system prompt carries &lt;available_skills&gt; block</text>
<rect x="113" y="542" width="1373" height="44" rx="8" fill="#d08c4e" fill-opacity="0.13" stroke="#d08c4e" stroke-width="1"/>
<text x="800" y="569" text-anchor="middle" font-size="14" fill="#000000">Path 2: trigger injection — send_message matches triggers, appends content to the user message</text>
<line x1="233" y1="642" x2="506" y2="642" stroke="#d08c4e" stroke-width="2" marker-end="url(#arrc)"/>
<circle cx="296" cy="628" r="11" fill="#ffffff" stroke="#d08c4e" stroke-width="1.5"/>
<text x="296" y="633" text-anchor="middle" font-size="12" font-weight="700" fill="#000000">6</text>
<text x="314" y="633" font-size="14" fill="#000000">send_message: get_user_message_suffix(message)</text>
<path d="M 516 704 h 50 v 29 H 526" fill="none" stroke="#d08c4e" stroke-width="2" marker-end="url(#arrc)"/>
<circle cx="541" cy="688" r="11" fill="#ffffff" stroke="#d08c4e" stroke-width="1.5"/>
<text x="541" y="693" text-anchor="middle" font-size="12" font-weight="700" fill="#000000">7</text>
<text x="576" y="709" font-size="14" fill="#000000">match KeywordTrigger / TaskTrigger / PathTrigger</text>
<line x1="516" y1="765" x2="243" y2="765" stroke="#8a7a66" stroke-width="2" stroke-dasharray="7 5" marker-end="url(#arrr)"/>
<circle cx="296" cy="751" r="11" fill="#ffffff" stroke="#8a7a66" stroke-width="1.5"/>
<text x="296" y="756" text-anchor="middle" font-size="12" font-weight="700" fill="#000000">8</text>
<text x="314" y="756" font-size="14" fill="#000000">suffix + triggered names (recorded in activated_knowledge_skills)</text>
<rect x="113" y="799" width="1373" height="44" rx="8" fill="#d08c4e" fill-opacity="0.13" stroke="#d08c4e" stroke-width="1"/>
<text x="800" y="826" text-anchor="middle" font-size="14" fill="#000000">Path 3: model invocation — the model calls the invoke_skill builtin tool</text>
<line x1="1084" y1="899" x2="1357" y2="899" stroke="#d08c4e" stroke-width="2" marker-end="url(#arrc)"/>
<circle cx="1148" cy="885" r="11" fill="#ffffff" stroke="#d08c4e" stroke-width="1.5"/>
<text x="1148" y="890" text-anchor="middle" font-size="12" font-weight="700" fill="#000000">9</text>
<text x="1166" y="890" font-size="14" fill="#000000">invoke_skill(name)</text>
<line x1="1367" y1="960" x2="810" y2="960" stroke="#d08c4e" stroke-width="2" marker-end="url(#arrc)"/>
<circle cx="1006" cy="946" r="11" fill="#ffffff" stroke="#d08c4e" stroke-width="1.5"/>
<text x="1006" y="951" text-anchor="middle" font-size="12" font-weight="700" fill="#000000">10</text>
<text x="1024" y="951" font-size="14" fill="#000000">render skill content (executes inline !commands)</text>
<line x1="1367" y1="1021" x2="1094" y2="1021" stroke="#8a7a66" stroke-width="2" stroke-dasharray="7 5" marker-end="url(#arrr)"/>
<circle cx="1148" cy="1007" r="11" fill="#ffffff" stroke="#8a7a66" stroke-width="1.5"/>
<text x="1148" y="1012" text-anchor="middle" font-size="12" font-weight="700" fill="#000000">11</text>
<text x="1166" y="1012" font-size="14" fill="#000000">InvokeSkillObservation (unless disable_model_invocation)</text>
</svg>