<svg xmlns="http://www.w3.org/2000/svg" viewBox="0 0 1600 899" width="1600" font-family="system-ui, -apple-system, sans-serif">
<defs><marker id="arrc" viewBox="0 0 10 10" refX="8" refY="5" markerWidth="7" markerHeight="7" orient="auto-start-reverse"><path d="M 0 1 L 9 5 L 0 9 z" fill="#d08c4e"/></marker><marker id="arrr" viewBox="0 0 10 10" refX="8" refY="5" markerWidth="7" markerHeight="7" orient="auto-start-reverse"><path d="M 0 1 L 9 5 L 0 9 z" fill="#8a7a66"/></marker></defs>
<text x="110.3448275862069" y="44" font-size="26" font-weight="700" fill="#ece1d3">Automation: thin observability layer</text>
<text x="110.3448275862069" y="74" font-size="15" fill="#a89880">tags and kwargs in; the scheduler stays out of the harness</text>
<line x1="283" y1="110" x2="283" y2="817" stroke="#3a2f26" stroke-width="2" stroke-dasharray="8 6"/>
<rect x="138" y="82" width="290" height="56" rx="10" fill="#1f1a15" stroke="#3a2f26" stroke-width="1.5"/>
<text x="283" y="116" text-anchor="middle" font-size="16" font-weight="600" fill="#ece1d3">Automation script</text>
<line x1="628" y1="110" x2="628" y2="817" stroke="#3a2f26" stroke-width="2" stroke-dasharray="8 6"/>
<rect x="483" y="82" width="290" height="56" rx="10" fill="#1f1a15" stroke="#3a2f26" stroke-width="1.5"/>
<text x="628" y="116" text-anchor="middle" font-size="16" font-weight="600" fill="#ece1d3">automation_conversation_kwargs</text>
<line x1="972" y1="110" x2="972" y2="817" stroke="#3a2f26" stroke-width="2" stroke-dasharray="8 6"/>
<rect x="828" y="82" width="290" height="56" rx="10" fill="#1f1a15" stroke="#3a2f26" stroke-width="1.5"/>
<text x="972" y="116" text-anchor="middle" font-size="16" font-weight="600" fill="#ece1d3">Conversation</text>
<line x1="1317" y1="110" x2="1317" y2="817" stroke="#3a2f26" stroke-width="2" stroke-dasharray="8 6"/>
<rect x="1172" y="82" width="290" height="56" rx="10" fill="#1f1a15" stroke="#3a2f26" stroke-width="1.5"/>
<text x="1317" y="116" text-anchor="middle" font-size="16" font-weight="600" fill="#ece1d3">Automation scheduler</text>
<rect x="138" y="199" width="1324" height="44" rx="8" fill="#d08c4e22" stroke="#d08c4e" stroke-width="1"/>
<text x="800" y="237" text-anchor="middle" font-size="14" fill="#ece1d3">Scheduling and dispatch live in the separate OpenHands/automation repo — the SDK side is observability context only</text>
<line x1="283" y1="320" x2="618" y2="320" stroke="#d08c4e" stroke-width="2" marker-end="url(#arrc)"/>
<circle cx="377" cy="306" r="11" fill="#1f1a15" stroke="#d08c4e" stroke-width="1.5"/>
<text x="377" y="311" text-anchor="middle" font-size="12" font-weight="700" fill="#ece1d3">1</text>
<text x="395" y="311" font-size="14" fill="#ece1d3">automation_conversation_kwargs(metadata, tags)</text>
<line x1="628" y1="394" x2="293" y2="394" stroke="#8a7a66" stroke-width="2" stroke-dasharray="7 5" marker-end="url(#arrr)"/>
<circle cx="377" cy="380" r="11" fill="#1f1a15" stroke="#8a7a66" stroke-width="1.5"/>
<text x="377" y="385" text-anchor="middle" font-size="12" font-weight="700" fill="#ece1d3">2</text>
<text x="395" y="385" font-size="14" fill="#ece1d3">kwargs (span name, observability + conversation tags)</text>
<line x1="283" y1="469" x2="962" y2="469" stroke="#d08c4e" stroke-width="2" marker-end="url(#arrc)"/>
<circle cx="550" cy="455" r="11" fill="#1f1a15" stroke="#d08c4e" stroke-width="1.5"/>
<text x="550" y="460" text-anchor="middle" font-size="12" font-weight="700" fill="#ece1d3">3</text>
<text x="568" y="460" font-size="14" fill="#ece1d3">Conversation(..., **kwargs)</text>
<rect x="972" y="516" width="83" height="47" rx="6" fill="none" stroke="#d08c4e" stroke-width="2"/>
<text x="1074" y="543" font-size="14" fill="#a89880">attach automation tags (automationtrigger, automationid, ...)</text>
<line x1="283" y1="618" x2="1307" y2="618" stroke="#d08c4e" stroke-width="2" marker-end="url(#arrc)"/>
<circle cx="722" cy="604" r="11" fill="#1f1a15" stroke="#d08c4e" stroke-width="1.5"/>
<text x="722" y="609" text-anchor="middle" font-size="12" font-weight="700" fill="#ece1d3">5</text>
<text x="740" y="609" font-size="14" fill="#ece1d3">hand off to scheduler</text>
<rect x="1317" y="665" width="83" height="47" rx="6" fill="none" stroke="#d08c4e" stroke-width="2"/>
<text x="1419" y="692" font-size="14" fill="#a89880">run conversation (async task, tagged + observable)</text>
<line x1="1317" y1="767" x2="293" y2="767" stroke="#8a7a66" stroke-width="2" stroke-dasharray="7 5" marker-end="url(#arrr)"/>
<circle cx="722" cy="753" r="11" fill="#1f1a15" stroke="#8a7a66" stroke-width="1.5"/>
<text x="722" y="758" text-anchor="middle" font-size="12" font-weight="700" fill="#ece1d3">7</text>
<text x="740" y="758" font-size="14" fill="#ece1d3">completion / outcome events carry the tags</text>
</svg>