<svg xmlns="http://www.w3.org/2000/svg" viewBox="-180 -70 960 1266" width="1600" height="2110" font-family="system-ui, -apple-system, sans-serif">
<defs>
<marker id="arrow" viewBox="0 0 10 10" refX="8" refY="5" markerWidth="7" markerHeight="7" orient="auto-start-reverse"><path d="M 0 1 L 9 5 L 0 9 z" fill="#8a7a66"/></marker>
</defs>
<text x="-180" y="-36" font-size="26" font-weight="700" fill="#ece1d3">Cline — one turn through the harness</text>
<text x="-180" y="-10" font-size="15" fill="#a89880">cline/cline @ f58bc11</text>
<g>
<path d="M 300.0 116 C 300.0 68.0, 630.0 68.0, 630.0 20" fill="none" stroke="#8a7a66" stroke-width="2" marker-end="url(#arrow)"/>
<text x="473.0" y="68.0" font-size="13" fill="#a89880">post</text>
<path d="M 630.0 116 C 630.0 133.0, 300.0 133.0, 300.0 150" fill="none" stroke="#8a7a66" stroke-width="2" marker-end="url(#arrow)"/>
<text x="473.0" y="133.0" font-size="13" fill="#a89880">rpc</text>
<path d="M 300.0 246 C 300.0 263.0, 300.0 263.0, 300.0 280" fill="none" stroke="#8a7a66" stroke-width="2" marker-end="url(#arrow)"/>
<text x="308.0" y="263.0" font-size="13" fill="#a89880">initTask</text>
<path d="M 300.0 376 C 300.0 393.0, 300.0 393.0, 300.0 410" fill="none" stroke="#8a7a66" stroke-width="2" marker-end="url(#arrow)"/>
<text x="308.0" y="393.0" font-size="13" fill="#a89880">sys prompt</text>
<path d="M 300.0 506 C 300.0 523.0, 300.0 523.0, 300.0 540" fill="none" stroke="#8a7a66" stroke-width="2" marker-end="url(#arrow)"/>
<text x="308.0" y="523.0" font-size="13" fill="#a89880">beforeModel</text>
<path d="M 300.0 636 C 300.0 653.0, 300.0 653.0, 300.0 670" fill="none" stroke="#8a7a66" stroke-width="2" marker-end="url(#arrow)"/>
<text x="308.0" y="653.0" font-size="13" fill="#a89880">iter 1 only</text>
<path d="M 300.0 766 C 300.0 783.0, 300.0 783.0, 300.0 800" fill="none" stroke="#8a7a66" stroke-width="2" marker-end="url(#arrow)"/>
<text x="308.0" y="783.0" font-size="13" fill="#a89880">tool calls</text>
<path d="M 300.0 896 C 300.0 913.0, 300.0 913.0, 300.0 930" fill="none" stroke="#8a7a66" stroke-width="2" marker-end="url(#arrow)"/>
<text x="308.0" y="913.0" font-size="13" fill="#a89880">results</text>
<path d="M 300.0 1026 C 300.0 588.0, -30.0 588.0, -30.0 150" fill="none" stroke="#8a7a66" stroke-width="2" marker-end="url(#arrow)"/>
<text x="143.0" y="588.0" font-size="13" fill="#a89880">next</text>
<path d="M 300.0 1026 C 300.0 1043.0, 300.0 1043.0, 300.0 1060" fill="none" stroke="#8a7a66" stroke-width="2" marker-end="url(#arrow)"/>
<text x="308.0" y="1043.0" font-size="13" fill="#a89880">done</text>
<path d="M -30.0 116 C -30.0 198.0, 300.0 198.0, 300.0 280" fill="none" stroke="#8a7a66" stroke-width="2" marker-end="url(#arrow)"/>
<text x="143.0" y="198.0" font-size="13" fill="#a89880">build</text>
<path d="M -30.0 246 C -30.0 458.0, 300.0 458.0, 300.0 670" fill="none" stroke="#8a7a66" stroke-width="2" marker-end="url(#arrow)"/>
<text x="143.0" y="458.0" font-size="13" fill="#a89880">retry</text>
<path d="M -30.0 506 C -30.0 653.0, 300.0 653.0, 300.0 800" fill="none" stroke="#8a7a66" stroke-width="2" marker-end="url(#arrow)"/>
<text x="143.0" y="653.0" font-size="13" fill="#a89880">group</text>
<path d="M -30.0 376 C -30.0 393.0, -30.0 393.0, -30.0 410" fill="none" stroke="#8a7a66" stroke-width="2" marker-end="url(#arrow)"/>
<text x="-22.0" y="393.0" font-size="13" fill="#a89880">5x</text>
<path d="M 630.0 766 C 630.0 783.0, 300.0 783.0, 300.0 800" fill="none" stroke="#8a7a66" stroke-width="2" marker-end="url(#arrow)"/>
<text x="473.0" y="783.0" font-size="13" fill="#a89880">gate</text>
<path d="M 630.0 636 C 630.0 653.0, 300.0 653.0, 300.0 670" fill="none" stroke="#8a7a66" stroke-width="2" marker-end="url(#arrow)"/>
<text x="473.0" y="653.0" font-size="13" fill="#a89880">stream</text>
<path d="M 630.0 376 C 630.0 328.0, 300.0 328.0, 300.0 280" fill="none" stroke="#8a7a66" stroke-width="2" marker-end="url(#arrow)"/>
<text x="473.0" y="328.0" font-size="13" fill="#a89880">native</text>
<path d="M 630.0 246 C 630.0 263.0, 300.0 263.0, 300.0 280" fill="none" stroke="#8a7a66" stroke-width="2" marker-end="url(#arrow)"/>
<text x="473.0" y="263.0" font-size="13" fill="#a89880">preset</text>
<path d="M 630.0 506 C 630.0 523.0, 300.0 523.0, 300.0 540" fill="none" stroke="#8a7a66" stroke-width="2" marker-end="url(#arrow)"/>
<text x="473.0" y="523.0" font-size="13" fill="#a89880">hooks</text>
<path d="M 630.0 896 C 630.0 848.0, 300.0 848.0, 300.0 800" fill="none" stroke="#8a7a66" stroke-width="2" marker-end="url(#arrow)"/>
<text x="473.0" y="848.0" font-size="13" fill="#a89880">spawn</text>
<path d="M 300.0 1156 C 300.0 588.0, 630.0 588.0, 630.0 20" fill="none" stroke="#8a7a66" stroke-width="2" marker-end="url(#arrow)"/>
<text x="473.0" y="588.0" font-size="13" fill="#a89880">msgs</text>
</g><g>
<rect x="190" y="20" width="220" height="96" rx="10" fill="#1f1a15" stroke="#3a2f26" stroke-width="1.5"/><rect x="190" y="20" width="5" height="96" rx="2" fill="#d08c4e"/>
<circle cx="212" cy="42" r="13" fill="#d08c4e"/><text x="212" y="47" text-anchor="middle" font-size="14" font-weight="700" fill="#161210">1</text>
<text x="234" y="48" font-size="15" font-weight="600" fill="#ece1d3">Webview input</text><text x="234" y="68" font-size="12" fill="#a89880">useMessageHandlers.ts:282</text>
<text x="204" y="104" font-size="11" fill="#a89880">2 source links · verified</text>
<rect x="190" y="150" width="220" height="96" rx="10" fill="#1f1a15" stroke="#3a2f26" stroke-width="1.5"/><rect x="190" y="150" width="5" height="96" rx="2" fill="#d08c4e"/>
<circle cx="212" cy="172" r="13" fill="#d08c4e"/><text x="212" y="177" text-anchor="middle" font-size="14" font-weight="700" fill="#161210">2</text>
<text x="234" y="178" font-size="15" font-weight="600" fill="#ece1d3">Host dispatch</text><text x="234" y="198" font-size="12" fill="#a89880">grpc-handler.ts:52</text>
<text x="204" y="234" font-size="11" fill="#a89880">2 source links · verified</text>
<rect x="190" y="280" width="220" height="96" rx="10" fill="#1f1a15" stroke="#3a2f26" stroke-width="1.5"/><rect x="190" y="280" width="5" height="96" rx="2" fill="#d08c4e"/>
<circle cx="212" cy="302" r="13" fill="#d08c4e"/><text x="212" y="307" text-anchor="middle" font-size="14" font-weight="700" fill="#161210">3</text>
<text x="234" y="308" font-size="15" font-weight="600" fill="#ece1d3">Session build</text><text x="234" y="328" font-size="12" fill="#a89880">vscode-session-host.ts:197</text>
<text x="204" y="364" font-size="11" fill="#a89880">2 source links · verified</text>
<rect x="190" y="410" width="220" height="96" rx="10" fill="#1f1a15" stroke="#3a2f26" stroke-width="1.5"/><rect x="190" y="410" width="5" height="96" rx="2" fill="#d08c4e"/>
<circle cx="212" cy="432" r="13" fill="#d08c4e"/><text x="212" y="437" text-anchor="middle" font-size="14" font-weight="700" fill="#161210">4</text>
<text x="234" y="438" font-size="15" font-weight="600" fill="#ece1d3">Prompt assembly</text><text x="234" y="458" font-size="12" fill="#a89880">prompt/cline.ts:152</text>
<text x="204" y="494" font-size="11" fill="#a89880">2 source links · verified</text>
<rect x="190" y="540" width="220" height="96" rx="10" fill="#1f1a15" stroke="#3a2f26" stroke-width="1.5"/><rect x="190" y="540" width="5" height="96" rx="2" fill="#d08c4e"/>
<circle cx="212" cy="562" r="13" fill="#d08c4e"/><text x="212" y="567" text-anchor="middle" font-size="14" font-weight="700" fill="#161210">5</text>
<text x="234" y="568" font-size="15" font-weight="600" fill="#ece1d3">Checkpoint</text><text x="234" y="588" font-size="12" fill="#a89880">checkpoint-hooks.ts:658</text>
<text x="204" y="624" font-size="11" fill="#a89880">2 source links · verified</text>
<rect x="190" y="670" width="220" height="96" rx="10" fill="#1f1a15" stroke="#3a2f26" stroke-width="1.5"/><rect x="190" y="670" width="5" height="96" rx="2" fill="#d08c4e"/>
<circle cx="212" cy="692" r="13" fill="#d08c4e"/><text x="212" y="697" text-anchor="middle" font-size="14" font-weight="700" fill="#161210">6</text>
<text x="234" y="698" font-size="15" font-weight="600" fill="#ece1d3">Model call</text><text x="234" y="718" font-size="12" fill="#a89880">providers/gateway.ts:273</text>
<text x="204" y="754" font-size="11" fill="#a89880">2 source links · verified</text>
<rect x="190" y="800" width="220" height="96" rx="10" fill="#1f1a15" stroke="#3a2f26" stroke-width="1.5"/><rect x="190" y="800" width="5" height="96" rx="2" fill="#d08c4e"/>
<circle cx="212" cy="822" r="13" fill="#d08c4e"/><text x="212" y="827" text-anchor="middle" font-size="14" font-weight="700" fill="#161210">7</text>
<text x="234" y="828" font-size="15" font-weight="600" fill="#ece1d3">Tool dispatch</text><text x="234" y="848" font-size="12" fill="#a89880">agent-runtime.ts:2347</text>
<text x="204" y="884" font-size="11" fill="#a89880">2 source links · verified</text>
<rect x="190" y="930" width="220" height="96" rx="10" fill="#1f1a15" stroke="#3a2f26" stroke-width="1.5"/><rect x="190" y="930" width="5" height="96" rx="2" fill="#d08c4e"/>
<circle cx="212" cy="952" r="13" fill="#d08c4e"/><text x="212" y="957" text-anchor="middle" font-size="14" font-weight="700" fill="#161210">8</text>
<text x="234" y="958" font-size="15" font-weight="600" fill="#ece1d3">Feedback &amp; loop</text><text x="234" y="978" font-size="12" fill="#a89880">agent-runtime.ts:2284</text>
<text x="204" y="1014" font-size="11" fill="#a89880">2 source links · verified</text>
<rect x="190" y="1060" width="220" height="96" rx="10" fill="#1f1a15" stroke="#3a2f26" stroke-width="1.5"/><rect x="190" y="1060" width="5" height="96" rx="2" fill="#d08c4e"/>
<circle cx="212" cy="1082" r="13" fill="#d08c4e"/><text x="212" y="1087" text-anchor="middle" font-size="14" font-weight="700" fill="#161210">9</text>
<text x="234" y="1088" font-size="15" font-weight="600" fill="#ece1d3">Termination &amp; render</text><text x="234" y="1108" font-size="12" fill="#a89880">agent-runtime.ts:950</text>
<text x="204" y="1144" font-size="11" fill="#a89880">2 source links · verified</text>
<rect x="-140" y="20" width="220" height="96" rx="10" fill="#1f1a15" stroke="#3a2f26" stroke-width="1.5"/><rect x="-140" y="20" width="5" height="96" rx="2" fill="#d08c4e"/>
<text x="-96" y="48" font-size="15" font-weight="600" fill="#ece1d3">AgentRuntime.execute()</text><text x="-96" y="68" font-size="12" fill="#a89880">agent-runtime.ts:830</text>
<text x="-126" y="104" font-size="11" fill="#a89880">2 source links · verified</text>
<rect x="-140" y="150" width="220" height="96" rx="10" fill="#1f1a15" stroke="#3a2f26" stroke-width="1.5"/><rect x="-140" y="150" width="5" height="96" rx="2" fill="#d08c4e"/>
<text x="-96" y="178" font-size="15" font-weight="600" fill="#ece1d3">Turn loop</text><text x="-96" y="198" font-size="12" fill="#a89880">agent-runtime.ts:1172</text>
<text x="-126" y="234" font-size="11" fill="#a89880">2 source links · verified</text>
<rect x="-140" y="410" width="220" height="96" rx="10" fill="#1f1a15" stroke="#3a2f26" stroke-width="1.5"/><rect x="-140" y="410" width="5" height="96" rx="2" fill="#d08c4e"/>
<text x="-96" y="438" font-size="15" font-weight="600" fill="#ece1d3">Tool execution</text><text x="-96" y="458" font-size="12" fill="#a89880">agent-runtime.ts:2304</text>
<text x="-126" y="494" font-size="11" fill="#a89880">1 source link · verified</text>
<rect x="-140" y="280" width="220" height="96" rx="10" fill="#1f1a15" stroke="#3a2f26" stroke-width="1.5"/><rect x="-140" y="280" width="5" height="96" rx="2" fill="#d08c4e"/>
<text x="-96" y="308" font-size="15" font-weight="600" fill="#ece1d3">Safety tripwires</text><text x="-96" y="328" font-size="12" fill="#a89880">safety/loop-detection.ts:114</text>
<text x="-126" y="364" font-size="11" fill="#a89880">2 source links · verified</text>
<rect x="520" y="20" width="220" height="96" rx="10" fill="#1f1a15" stroke="#3a2f26" stroke-width="1.5"/><rect x="520" y="20" width="5" height="96" rx="2" fill="#d08c4e"/>
<text x="564" y="48" font-size="15" font-weight="600" fill="#ece1d3">Proto-bus bridge</text><text x="564" y="68" font-size="12" fill="#a89880">webview-grpc-bridge.ts:55</text>
<text x="534" y="104" font-size="11" fill="#a89880">1 source link · verified</text>
<rect x="520" y="670" width="220" height="96" rx="10" fill="#1f1a15" stroke="#3a2f26" stroke-width="1.5"/><rect x="520" y="670" width="5" height="96" rx="2" fill="#d08c4e"/>
<text x="564" y="698" font-size="15" font-weight="600" fill="#ece1d3">3-layer approval</text><text x="564" y="718" font-size="12" fill="#a89880">sdk-tool-policies.ts:13</text>
<text x="534" y="754" font-size="11" fill="#a89880">2 source links · verified</text>
<rect x="520" y="540" width="220" height="96" rx="10" fill="#1f1a15" stroke="#3a2f26" stroke-width="1.5"/><rect x="520" y="540" width="5" height="96" rx="2" fill="#d08c4e"/>
<text x="564" y="568" font-size="15" font-weight="600" fill="#ece1d3">228 providers, 1 adapter</text><text x="564" y="588" font-size="12" fill="#a89880">providers/ai-sdk.ts:2127</text>
<text x="534" y="624" font-size="11" fill="#a89880">2 source links · verified</text>
<rect x="520" y="280" width="220" height="96" rx="10" fill="#1f1a15" stroke="#3a2f26" stroke-width="1.5"/><rect x="520" y="280" width="5" height="96" rx="2" fill="#d08c4e"/>
<text x="564" y="308" font-size="15" font-weight="600" fill="#ece1d3">MCP natives</text><text x="564" y="328" font-size="12" fill="#a89880">McpHub.ts:76</text>
<text x="534" y="364" font-size="11" fill="#a89880">2 source links · verified</text>
<rect x="520" y="150" width="220" height="96" rx="10" fill="#1f1a15" stroke="#3a2f26" stroke-width="1.5"/><rect x="520" y="150" width="5" height="96" rx="2" fill="#d08c4e"/>
<text x="564" y="178" font-size="15" font-weight="600" fill="#ece1d3">plan/act modes</text><text x="564" y="198" font-size="12" fill="#a89880">tools/presets.ts:47</text>
<text x="534" y="234" font-size="11" fill="#a89880">2 source links · verified</text>
<rect x="520" y="800" width="220" height="96" rx="10" fill="#1f1a15" stroke="#3a2f26" stroke-width="1.5"/><rect x="520" y="800" width="5" height="96" rx="2" fill="#d08c4e"/>
<text x="564" y="828" font-size="15" font-weight="600" fill="#ece1d3">Sub-agents &amp; teams</text><text x="564" y="848" font-size="12" fill="#a89880">spawn-agent-tool.ts:117</text>
<text x="534" y="884" font-size="11" fill="#a89880">1 source link · verified</text>
<rect x="520" y="410" width="220" height="96" rx="10" fill="#1f1a15" stroke="#3a2f26" stroke-width="1.5"/><rect x="520" y="410" width="5" height="96" rx="2" fill="#d08c4e"/>
<text x="564" y="438" font-size="15" font-weight="600" fill="#ece1d3">Plugins &amp; hooks</text><text x="564" y="458" font-size="12" fill="#a89880">shared/src/agent.ts:467</text>
<text x="534" y="494" font-size="11" fill="#a89880">2 source links · verified</text>
</g>
<g font-size="12" fill="#a89880">
<rect x="450" y="1161" width="12" height="12" rx="2" fill="#d08c4e"/><text x="467" y="1172">verified</text>
<rect x="555" y="1161" width="12" height="12" rx="2" fill="#7c8aa0"/><text x="572" y="1172">docs</text>
<rect x="660" y="1161" width="12" height="12" rx="2" fill="#8a7a66"/><text x="677" y="1172">inferred</text>
</g></svg>