<svg xmlns="http://www.w3.org/2000/svg" viewBox="0 0 1600 946" width="1600" font-family="system-ui, -apple-system, sans-serif">
<defs><marker id="arrc" viewBox="0 0 10 10" refX="8" refY="5" markerWidth="7" markerHeight="7" orient="auto-start-reverse"><path d="M 0 1 L 9 5 L 0 9 z" fill="#d08c4e"/></marker><marker id="arrr" viewBox="0 0 10 10" refX="8" refY="5" markerWidth="7" markerHeight="7" orient="auto-start-reverse"><path d="M 0 1 L 9 5 L 0 9 z" fill="#8a7a66"/></marker></defs><rect x="0" y="0" width="1600" height="946" fill="#f7f2e9"/>
<text x="90.78014184397163" y="44" font-size="26" font-weight="700" fill="#000000">Cline: runtime MCP tool call</text>
<text x="90.78014184397163" y="74" font-size="15" fill="#000000">createMcpTools maps descriptors to createTool; execute calls through</text>
<line x1="233" y1="110" x2="233" y2="878" stroke="#3a2f26" stroke-width="2" stroke-dasharray="8 6"/>
<rect x="113" y="82" width="238" height="56" rx="10" fill="#ffffff" stroke="#3a2f26" stroke-width="1.5"/>
<text x="233" y="116" text-anchor="middle" font-size="16" font-weight="600" fill="#000000">AgentRuntime</text>
<line x1="516" y1="110" x2="516" y2="878" stroke="#3a2f26" stroke-width="2" stroke-dasharray="8 6"/>
<rect x="397" y="82" width="238" height="56" rx="10" fill="#ffffff" stroke="#3a2f26" stroke-width="1.5"/>
<text x="516" y="116" text-anchor="middle" font-size="16" font-weight="600" fill="#000000">Policy gate</text>
<line x1="800" y1="110" x2="800" y2="878" stroke="#3a2f26" stroke-width="2" stroke-dasharray="8 6"/>
<rect x="681" y="82" width="238" height="56" rx="10" fill="#ffffff" stroke="#3a2f26" stroke-width="1.5"/>
<text x="800" y="116" text-anchor="middle" font-size="16" font-weight="600" fill="#000000">Approval UI</text>
<line x1="1084" y1="110" x2="1084" y2="878" stroke="#3a2f26" stroke-width="2" stroke-dasharray="8 6"/>
<rect x="965" y="82" width="238" height="56" rx="10" fill="#ffffff" stroke="#3a2f26" stroke-width="1.5"/>
<text x="1084" y="116" text-anchor="middle" font-size="16" font-weight="600" fill="#000000">AgentTool</text>
<line x1="1367" y1="110" x2="1367" y2="878" stroke="#3a2f26" stroke-width="2" stroke-dasharray="8 6"/>
<rect x="1248" y="82" width="238" height="56" rx="10" fill="#ffffff" stroke="#3a2f26" stroke-width="1.5"/>
<text x="1367" y="116" text-anchor="middle" font-size="16" font-weight="600" fill="#000000">MCP server</text>
<line x1="233" y1="191" x2="506" y2="191" stroke="#d08c4e" stroke-width="2" marker-end="url(#arrc)"/>
<circle cx="296" cy="177" r="11" fill="#ffffff" stroke="#d08c4e" stroke-width="1.5"/>
<text x="296" y="182" text-anchor="middle" font-size="12" font-weight="700" fill="#000000">1</text>
<text x="314" y="182" font-size="14" fill="#000000">model emits server__tool call</text>
<rect x="516" y="229" width="68" height="39" rx="6" fill="none" stroke="#d08c4e" stroke-width="2"/>
<text x="600" y="252" font-size="14" fill="#000000">prepareToolExecution: resolveToolPolicy(&#x27;*&#x27; then name)</text>
<rect x="113" y="286" width="806" height="44" rx="8" fill="#d08c4e22" stroke="#d08c4e" stroke-width="1"/>
<text x="516" y="318" text-anchor="middle" font-size="14" fill="#000000">VS Code forces autoApprove:false on every governed tool so the callback is always consulted</text>
<line x1="516" y1="386" x2="790" y2="386" stroke="#d08c4e" stroke-width="2" marker-end="url(#arrc)"/>
<circle cx="580" cy="372" r="11" fill="#ffffff" stroke="#d08c4e" stroke-width="1.5"/>
<text x="580" y="377" text-anchor="middle" font-size="12" font-weight="700" fill="#000000">3</text>
<text x="598" y="377" font-size="14" fill="#000000">requestToolApproval() -&gt; approval callback</text>
<rect x="800" y="424" width="68" height="39" rx="6" fill="none" stroke="#d08c4e" stroke-width="2"/>
<text x="884" y="447" font-size="14" fill="#000000">live-settings short-circuit (auto-approve reads/edits/MCP)</text>
<line x1="516" y1="508" x2="1074" y2="508" stroke="#d08c4e" stroke-width="2" marker-end="url(#arrc)"/>
<circle cx="722" cy="494" r="11" fill="#ffffff" stroke="#d08c4e" stroke-width="1.5"/>
<text x="722" y="499" text-anchor="middle" font-size="12" font-weight="700" fill="#000000">5</text>
<text x="740" y="499" font-size="14" fill="#000000">AgentTool.execute(input, context)</text>
<line x1="1084" y1="570" x2="1357" y2="570" stroke="#d08c4e" stroke-width="2" marker-end="url(#arrc)"/>
<circle cx="1148" cy="556" r="11" fill="#ffffff" stroke="#d08c4e" stroke-width="1.5"/>
<text x="1148" y="561" text-anchor="middle" font-size="12" font-weight="700" fill="#000000">6</text>
<text x="1166" y="561" font-size="14" fill="#000000">provider.callTool({serverName, toolName, arguments})</text>
<rect x="681" y="604" width="806" height="44" rx="8" fill="#d08c4e22" stroke="#d08c4e" stroke-width="1"/>
<text x="1084" y="635" text-anchor="middle" font-size="14" fill="#000000">Name was server__tool at registration (createMcpTools); the server sees its own tool name</text>
<line x1="1367" y1="704" x2="1094" y2="704" stroke="#8a7a66" stroke-width="2" stroke-dasharray="7 5" marker-end="url(#arrr)"/>
<circle cx="1148" cy="690" r="11" fill="#ffffff" stroke="#8a7a66" stroke-width="1.5"/>
<text x="1148" y="695" text-anchor="middle" font-size="12" font-weight="700" fill="#000000">7</text>
<text x="1166" y="695" font-size="14" fill="#000000">CallToolResult</text>
<line x1="1084" y1="765" x2="243" y2="765" stroke="#8a7a66" stroke-width="2" stroke-dasharray="7 5" marker-end="url(#arrr)"/>
<circle cx="580" cy="751" r="11" fill="#ffffff" stroke="#8a7a66" stroke-width="1.5"/>
<text x="580" y="756" text-anchor="middle" font-size="12" font-weight="700" fill="#000000">8</text>
<text x="598" y="756" font-size="14" fill="#000000">tool result message</text>
<rect x="113" y="799" width="1373" height="44" rx="8" fill="#d08c4e22" stroke="#d08c4e" stroke-width="1"/>
<text x="800" y="831" text-anchor="middle" font-size="14" fill="#000000">No use_mcp_tool wrapper in the SDK path — MCP tools are native AgentTools</text>
</svg>