<svg xmlns="http://www.w3.org/2000/svg" viewBox="0 0 1600 1045" width="1600" font-family="system-ui, -apple-system, sans-serif">
<defs><marker id="arrc" viewBox="0 0 10 10" refX="8" refY="5" markerWidth="7" markerHeight="7" orient="auto-start-reverse"><path d="M 0 1 L 9 5 L 0 9 z" fill="#d08c4e"/></marker><marker id="arrr" viewBox="0 0 10 10" refX="8" refY="5" markerWidth="7" markerHeight="7" orient="auto-start-reverse"><path d="M 0 1 L 9 5 L 0 9 z" fill="#8a7a66"/></marker></defs>
<rect x="0" y="0" width="1600" height="1045" fill="#f7f2e9"/>
<text x="77.10843373493975" y="44" font-size="26" font-weight="700" fill="#000000">Gemini CLI: tool approval pipeline</text>
<text x="77.10843373493975" y="74" font-size="15" fill="#000000">BeforeTool hook → policy check → taint escalation → confirmation bus → execution</text>
<line x1="198" y1="110" x2="198" y2="987" stroke="#3a2f26" stroke-width="2" stroke-dasharray="8 6"/>
<rect x="96" y="82" width="202" height="56" rx="10" fill="#ffffff" stroke="#3a2f26" stroke-width="1.5"/>
<text x="198" y="116" text-anchor="middle" font-size="16" font-weight="600" fill="#000000">useToolScheduler</text>
<line x1="439" y1="110" x2="439" y2="987" stroke="#3a2f26" stroke-width="2" stroke-dasharray="8 6"/>
<rect x="337" y="82" width="202" height="56" rx="10" fill="#ffffff" stroke="#3a2f26" stroke-width="1.5"/>
<text x="439" y="116" text-anchor="middle" font-size="16" font-weight="600" fill="#000000">CoreToolScheduler</text>
<line x1="680" y1="110" x2="680" y2="987" stroke="#3a2f26" stroke-width="2" stroke-dasharray="8 6"/>
<rect x="578" y="82" width="202" height="56" rx="10" fill="#ffffff" stroke="#3a2f26" stroke-width="1.5"/>
<text x="680" y="116" text-anchor="middle" font-size="16" font-weight="600" fill="#000000">HookSystem</text>
<line x1="920" y1="110" x2="920" y2="987" stroke="#3a2f26" stroke-width="2" stroke-dasharray="8 6"/>
<rect x="819" y="82" width="202" height="56" rx="10" fill="#ffffff" stroke="#3a2f26" stroke-width="1.5"/>
<text x="920" y="116" text-anchor="middle" font-size="16" font-weight="600" fill="#000000">PolicyEngine</text>
<line x1="1161" y1="110" x2="1161" y2="987" stroke="#3a2f26" stroke-width="2" stroke-dasharray="8 6"/>
<rect x="1060" y="82" width="202" height="56" rx="10" fill="#ffffff" stroke="#3a2f26" stroke-width="1.5"/>
<text x="1161" y="116" text-anchor="middle" font-size="16" font-weight="600" fill="#000000">MessageBus</text>
<line x1="1402" y1="110" x2="1402" y2="987" stroke="#3a2f26" stroke-width="2" stroke-dasharray="8 6"/>
<rect x="1301" y="82" width="202" height="56" rx="10" fill="#ffffff" stroke="#3a2f26" stroke-width="1.5"/>
<text x="1402" y="116" text-anchor="middle" font-size="16" font-weight="600" fill="#000000">TUI Dialog</text>
<line x1="198" y1="162" x2="429" y2="162" stroke="#d08c4e" stroke-width="2" marker-end="url(#arrc)"/>
<circle cx="240" cy="148" r="11" fill="#ffffff" stroke="#d08c4e" stroke-width="1.5"/>
<text x="240" y="153" text-anchor="middle" font-size="12" font-weight="700" fill="#000000">1</text>
<text x="258" y="153" font-size="14" fill="#000000">schedule(toolCall)</text>
<path d="M 439 214 h 42 v 25 H 449" fill="none" stroke="#d08c4e" stroke-width="2" marker-end="url(#arrc)"/>
<circle cx="460" cy="198" r="11" fill="#ffffff" stroke="#d08c4e" stroke-width="1.5"/>
<text x="460" y="203" text-anchor="middle" font-size="12" font-weight="700" fill="#000000">2</text>
<text x="491" y="219" font-size="14" fill="#000000">_processToolCall: state → Validating</text>
<line x1="439" y1="266" x2="670" y2="266" stroke="#d08c4e" stroke-width="2" marker-end="url(#arrc)"/>
<circle cx="481" cy="252" r="11" fill="#ffffff" stroke="#d08c4e" stroke-width="1.5"/>
<text x="481" y="257" text-anchor="middle" font-size="12" font-weight="700" fill="#000000">3</text>
<text x="499" y="257" font-size="14" fill="#000000">fireBeforeToolEvent(tool_name, tool_input)</text>
<line x1="680" y1="318" x2="449" y2="318" stroke="#8a7a66" stroke-width="2" stroke-dasharray="7 5" marker-end="url(#arrr)"/>
<circle cx="481" cy="304" r="11" fill="#ffffff" stroke="#8a7a66" stroke-width="1.5"/>
<text x="481" y="309" text-anchor="middle" font-size="12" font-weight="700" fill="#000000">4</text>
<text x="499" y="309" font-size="14" fill="#000000">decision: allow / block / modified tool_input</text>
<line x1="439" y1="370" x2="910" y2="370" stroke="#d08c4e" stroke-width="2" marker-end="url(#arrc)"/>
<circle cx="602" cy="356" r="11" fill="#ffffff" stroke="#d08c4e" stroke-width="1.5"/>
<text x="602" y="361" text-anchor="middle" font-size="12" font-weight="700" fill="#000000">5</text>
<text x="620" y="361" font-size="14" fill="#000000">checkPolicy(toolCall, annotations)</text>
<line x1="920" y1="422" x2="449" y2="422" stroke="#8a7a66" stroke-width="2" stroke-dasharray="7 5" marker-end="url(#arrr)"/>
<circle cx="602" cy="408" r="11" fill="#ffffff" stroke="#8a7a66" stroke-width="1.5"/>
<text x="602" y="413" text-anchor="middle" font-size="12" font-weight="700" fill="#000000">6</text>
<text x="620" y="413" font-size="14" fill="#000000">{decision: ALLOW | DENY | ASK_USER, rule}</text>
<path d="M 439 474 h 42 v 25 H 449" fill="none" stroke="#d08c4e" stroke-width="2" marker-end="url(#arrc)"/>
<circle cx="460" cy="458" r="11" fill="#ffffff" stroke="#d08c4e" stroke-width="1.5"/>
<text x="460" y="463" text-anchor="middle" font-size="12" font-weight="700" fill="#000000">7</text>
<text x="491" y="479" font-size="14" fill="#000000">taint-risk escalation (build files, outside workspace)</text>
<line x1="439" y1="526" x2="1151" y2="526" stroke="#d08c4e" stroke-width="2" marker-end="url(#arrc)"/>
<circle cx="722" cy="512" r="11" fill="#ffffff" stroke="#d08c4e" stroke-width="1.5"/>
<text x="722" y="517" text-anchor="middle" font-size="12" font-weight="700" fill="#000000">8</text>
<text x="740" y="517" font-size="14" fill="#000000">resolveConfirmation → publish TOOL_CONFIRMATION_REQUEST</text>
<path d="M 1161 578 h 42 v 25 H 1171" fill="none" stroke="#d08c4e" stroke-width="2" marker-end="url(#arrc)"/>
<circle cx="1183" cy="562" r="11" fill="#ffffff" stroke="#d08c4e" stroke-width="1.5"/>
<text x="1183" y="567" text-anchor="middle" font-size="12" font-weight="700" fill="#000000">9</text>
<text x="1214" y="583" font-size="14" fill="#000000">policyEngine.check() → ASK_USER → emit to UI</text>
<line x1="1161" y1="630" x2="1392" y2="630" stroke="#d08c4e" stroke-width="2" marker-end="url(#arrc)"/>
<circle cx="1204" cy="616" r="11" fill="#ffffff" stroke="#d08c4e" stroke-width="1.5"/>
<text x="1204" y="621" text-anchor="middle" font-size="12" font-weight="700" fill="#000000">10</text>
<text x="1222" y="621" font-size="14" fill="#000000">TOOL_CONFIRMATION_REQUEST → dialog</text>
<line x1="1402" y1="682" x2="1171" y2="682" stroke="#8a7a66" stroke-width="2" stroke-dasharray="7 5" marker-end="url(#arrr)"/>
<circle cx="1204" cy="668" r="11" fill="#ffffff" stroke="#8a7a66" stroke-width="1.5"/>
<text x="1204" y="673" text-anchor="middle" font-size="12" font-weight="700" fill="#000000">11</text>
<text x="1222" y="673" font-size="14" fill="#000000">TOOL_CONFIRMATION_RESPONSE {outcome}</text>
<line x1="1161" y1="734" x2="449" y2="734" stroke="#8a7a66" stroke-width="2" stroke-dasharray="7 5" marker-end="url(#arrr)"/>
<circle cx="722" cy="720" r="11" fill="#ffffff" stroke="#8a7a66" stroke-width="1.5"/>
<text x="722" y="725" text-anchor="middle" font-size="12" font-weight="700" fill="#000000">12</text>
<text x="740" y="725" font-size="14" fill="#000000">confirmed → allow</text>
<rect x="337" y="763" width="925" height="44" rx="8" fill="#d08c4e" fill-opacity="0.13" stroke="#d08c4e" stroke-width="1"/>
<text x="800" y="790" text-anchor="middle" font-size="14" fill="#000000">policy learning</text>
<path d="M 439 848 h 42 v 25 H 449" fill="none" stroke="#d08c4e" stroke-width="2" marker-end="url(#arrc)"/>
<circle cx="460" cy="832" r="11" fill="#ffffff" stroke="#d08c4e" stroke-width="1.5"/>
<text x="460" y="837" text-anchor="middle" font-size="12" font-weight="700" fill="#000000">13</text>
<text x="491" y="853" font-size="14" fill="#000000">state → Scheduled → executing: tool.execute()</text>
<line x1="439" y1="900" x2="670" y2="900" stroke="#d08c4e" stroke-width="2" marker-end="url(#arrc)"/>
<circle cx="481" cy="886" r="11" fill="#ffffff" stroke="#d08c4e" stroke-width="1.5"/>
<text x="481" y="891" text-anchor="middle" font-size="12" font-weight="700" fill="#000000">14</text>
<text x="499" y="891" font-size="14" fill="#000000">fireAfterToolEvent(tool_response)</text>
<line x1="439" y1="952" x2="208" y2="952" stroke="#8a7a66" stroke-width="2" stroke-dasharray="7 5" marker-end="url(#arrr)"/>
<circle cx="240" cy="938" r="11" fill="#ffffff" stroke="#8a7a66" stroke-width="1.5"/>
<text x="240" y="943" text-anchor="middle" font-size="12" font-weight="700" fill="#000000">15</text>
<text x="258" y="943" font-size="14" fill="#000000">terminal state → functionResponse parts</text>
</svg>