<svg xmlns="http://www.w3.org/2000/svg" viewBox="0 0 1600 839" width="1600" font-family="system-ui, -apple-system, sans-serif">
<defs><marker id="arrc" viewBox="0 0 10 10" refX="8" refY="5" markerWidth="7" markerHeight="7" orient="auto-start-reverse"><path d="M 0 1 L 9 5 L 0 9 z" fill="#d08c4e"/></marker><marker id="arrr" viewBox="0 0 10 10" refX="8" refY="5" markerWidth="7" markerHeight="7" orient="auto-start-reverse"><path d="M 0 1 L 9 5 L 0 9 z" fill="#8a7a66"/></marker></defs><rect x="0" y="0" width="1600" height="839" fill="#f7f2e9"/>
<text x="110.3448275862069" y="44" font-size="26" font-weight="700" fill="#000000">Goose: scheduled recipe execution</text>
<text x="110.3448275862069" y="74" font-size="15" fill="#000000">Cron over recipes; the agent can schedule its own future runs</text>
<line x1="283" y1="110" x2="283" y2="756" stroke="#3a2f26" stroke-width="2" stroke-dasharray="8 6"/>
<rect x="138" y="82" width="290" height="56" rx="10" fill="#ffffff" stroke="#3a2f26" stroke-width="1.5"/>
<text x="283" y="116" text-anchor="middle" font-size="16" font-weight="600" fill="#000000">Cron job</text>
<line x1="628" y1="110" x2="628" y2="756" stroke="#3a2f26" stroke-width="2" stroke-dasharray="8 6"/>
<rect x="483" y="82" width="290" height="56" rx="10" fill="#ffffff" stroke="#3a2f26" stroke-width="1.5"/>
<text x="628" y="116" text-anchor="middle" font-size="16" font-weight="600" fill="#000000">Scheduler</text>
<line x1="972" y1="110" x2="972" y2="756" stroke="#3a2f26" stroke-width="2" stroke-dasharray="8 6"/>
<rect x="828" y="82" width="290" height="56" rx="10" fill="#ffffff" stroke="#3a2f26" stroke-width="1.5"/>
<text x="972" y="116" text-anchor="middle" font-size="16" font-weight="600" fill="#000000">Recipe</text>
<line x1="1317" y1="110" x2="1317" y2="756" stroke="#3a2f26" stroke-width="2" stroke-dasharray="8 6"/>
<rect x="1172" y="82" width="290" height="56" rx="10" fill="#ffffff" stroke="#3a2f26" stroke-width="1.5"/>
<text x="1317" y="116" text-anchor="middle" font-size="16" font-weight="600" fill="#000000">Agent session</text>
<line x1="283" y1="232" x2="618" y2="232" stroke="#d08c4e" stroke-width="2" marker-end="url(#arrc)"/>
<circle cx="377" cy="218" r="11" fill="#ffffff" stroke="#d08c4e" stroke-width="1.5"/>
<text x="377" y="223" text-anchor="middle" font-size="12" font-weight="700" fill="#000000">1</text>
<text x="395" y="223" font-size="14" fill="#000000">cron expression fires (tokio-cron-scheduler)</text>
<rect x="628" y="279" width="83" height="47" rx="6" fill="none" stroke="#d08c4e" stroke-width="2"/>
<text x="730" y="306" font-size="14" fill="#000000">paused? -&gt; skip; else persist last_run</text>
<line x1="628" y1="381" x2="962" y2="381" stroke="#d08c4e" stroke-width="2" marker-end="url(#arrc)"/>
<circle cx="722" cy="367" r="11" fill="#ffffff" stroke="#d08c4e" stroke-width="1.5"/>
<text x="722" y="372" text-anchor="middle" font-size="12" font-weight="700" fill="#000000">3</text>
<text x="740" y="372" font-size="14" fill="#000000">execute_job: read + validate recipe</text>
<rect x="138" y="422" width="979" height="44" rx="8" fill="#d08c4e22" stroke="#d08c4e" stroke-width="1"/>
<text x="628" y="461" text-anchor="middle" font-size="14" fill="#000000">Recipe file format checked; relative sub-recipe/template refs survive the copy to scheduled_recipes/</text>
<line x1="628" y1="543" x2="1307" y2="543" stroke="#d08c4e" stroke-width="2" marker-end="url(#arrc)"/>
<circle cx="894" cy="529" r="11" fill="#ffffff" stroke="#d08c4e" stroke-width="1.5"/>
<text x="894" y="534" text-anchor="middle" font-size="12" font-weight="700" fill="#000000">4</text>
<text x="912" y="534" font-size="14" fill="#000000">session_manager: run recipe in Auto mode</text>
<rect x="483" y="585" width="979" height="44" rx="8" fill="#d08c4e22" stroke="#d08c4e" stroke-width="1"/>
<text x="972" y="623" text-anchor="middle" font-size="14" fill="#000000">Always Auto — a scheduled job is headless by construction; headless Approve/SmartApprove is a hard error</text>
<line x1="1317" y1="706" x2="638" y2="706" stroke="#8a7a66" stroke-width="2" stroke-dasharray="7 5" marker-end="url(#arrr)"/>
<circle cx="894" cy="692" r="11" fill="#ffffff" stroke="#8a7a66" stroke-width="1.5"/>
<text x="894" y="697" text-anchor="middle" font-size="12" font-weight="700" fill="#000000">5</text>
<text x="912" y="697" font-size="14" fill="#000000">result persisted on session record</text>
</svg>