<svg xmlns="http://www.w3.org/2000/svg" viewBox="0 0 1600 839" width="1600" font-family="system-ui, -apple-system, sans-serif">
<defs><marker id="arrc" viewBox="0 0 10 10" refX="8" refY="5" markerWidth="7" markerHeight="7" orient="auto-start-reverse"><path d="M 0 1 L 9 5 L 0 9 z" fill="#58a6ff"/></marker><marker id="arrr" viewBox="0 0 10 10" refX="8" refY="5" markerWidth="7" markerHeight="7" orient="auto-start-reverse"><path d="M 0 1 L 9 5 L 0 9 z" fill="#6e7681"/></marker></defs>
<text x="110.3448275862069" y="44" font-size="26" font-weight="700" fill="#e6edf3">Goose: skills discovery + load_skill</text>
<text x="110.3448275862069" y="74" font-size="15" fill="#8b949e">Advertise in prompt, load on demand — no eager injection</text>
<line x1="283" y1="110" x2="283" y2="756" stroke="#30363d" stroke-width="2" stroke-dasharray="8 6"/>
<rect x="138" y="82" width="290" height="56" rx="10" fill="#161b22" stroke="#30363d" stroke-width="1.5"/>
<text x="283" y="116" text-anchor="middle" font-size="16" font-weight="600" fill="#e6edf3">SkillOperation</text>
<line x1="628" y1="110" x2="628" y2="756" stroke="#30363d" stroke-width="2" stroke-dasharray="8 6"/>
<rect x="483" y="82" width="290" height="56" rx="10" fill="#161b22" stroke="#30363d" stroke-width="1.5"/>
<text x="628" y="116" text-anchor="middle" font-size="16" font-weight="600" fill="#e6edf3">Skill files</text>
<line x1="972" y1="110" x2="972" y2="756" stroke="#30363d" stroke-width="2" stroke-dasharray="8 6"/>
<rect x="828" y="82" width="290" height="56" rx="10" fill="#161b22" stroke="#30363d" stroke-width="1.5"/>
<text x="972" y="116" text-anchor="middle" font-size="16" font-weight="600" fill="#e6edf3">Model</text>
<line x1="1317" y1="110" x2="1317" y2="756" stroke="#30363d" stroke-width="2" stroke-dasharray="8 6"/>
<rect x="1172" y="82" width="290" height="56" rx="10" fill="#161b22" stroke="#30363d" stroke-width="1.5"/>
<text x="1317" y="116" text-anchor="middle" font-size="16" font-weight="600" fill="#e6edf3">load_skill tool</text>
<line x1="283" y1="232" x2="618" y2="232" stroke="#58a6ff" stroke-width="2" marker-end="url(#arrc)"/>
<circle cx="377" cy="218" r="11" fill="#161b22" stroke="#58a6ff" stroke-width="1.5"/>
<text x="377" y="223" text-anchor="middle" font-size="12" font-weight="700" fill="#e6edf3">1</text>
<text x="395" y="223" font-size="14" fill="#e6edf3">session start: discover_skills(working_dir)</text>
<rect x="138" y="273" width="634" height="44" rx="8" fill="#1f6feb22" stroke="#1f6feb" stroke-width="1"/>
<text x="455" y="312" text-anchor="middle" font-size="14" fill="#e6edf3">SKILL.md frontmatter + markdown, same shape as pi/Cline</text>
<line x1="283" y1="394" x2="962" y2="394" stroke="#58a6ff" stroke-width="2" marker-end="url(#arrc)"/>
<circle cx="550" cy="380" r="11" fill="#161b22" stroke="#58a6ff" stroke-width="1.5"/>
<text x="550" y="385" text-anchor="middle" font-size="12" font-weight="700" fill="#e6edf3">2</text>
<text x="568" y="385" font-size="14" fill="#e6edf3">&#x27;# Skills&#x27; list injected into system instructions</text>
<line x1="972" y1="469" x2="1307" y2="469" stroke="#58a6ff" stroke-width="2" marker-end="url(#arrc)"/>
<circle cx="1067" cy="455" r="11" fill="#161b22" stroke="#58a6ff" stroke-width="1.5"/>
<text x="1067" y="460" text-anchor="middle" font-size="12" font-weight="700" fill="#e6edf3">3</text>
<text x="1085" y="460" font-size="14" fill="#e6edf3">model calls load_skill(name, args?)</text>
<line x1="1317" y1="543" x2="638" y2="543" stroke="#58a6ff" stroke-width="2" marker-end="url(#arrc)"/>
<circle cx="894" cy="529" r="11" fill="#161b22" stroke="#58a6ff" stroke-width="1.5"/>
<text x="894" y="534" text-anchor="middle" font-size="12" font-weight="700" fill="#e6edf3">4</text>
<text x="912" y="534" font-size="14" fill="#e6edf3">SkillOperation: load skill file content</text>
<line x1="628" y1="618" x2="962" y2="618" stroke="#6e7681" stroke-width="2" stroke-dasharray="7 5" marker-end="url(#arrr)"/>
<circle cx="722" cy="604" r="11" fill="#161b22" stroke="#6e7681" stroke-width="1.5"/>
<text x="722" y="609" text-anchor="middle" font-size="12" font-weight="700" fill="#e6edf3">5</text>
<text x="740" y="609" font-size="14" fill="#e6edf3">full skill content into context</text>
<rect x="483" y="659" width="979" height="44" rx="8" fill="#1f6feb22" stroke="#1f6feb" stroke-width="1"/>
<text x="972" y="698" text-anchor="middle" font-size="14" fill="#e6edf3">Model reads the body and follows it; slash form (/skill-name) injects the prompt as a user message instead</text>
</svg>