<svg xmlns="http://www.w3.org/2000/svg" viewBox="0 0 1600 862" width="1600" font-family="system-ui, -apple-system, sans-serif">
<defs><marker id="arrc" viewBox="0 0 10 10" refX="8" refY="5" markerWidth="7" markerHeight="7" orient="auto-start-reverse"><path d="M 0 1 L 9 5 L 0 9 z" fill="#58a6ff"/></marker><marker id="arrr" viewBox="0 0 10 10" refX="8" refY="5" markerWidth="7" markerHeight="7" orient="auto-start-reverse"><path d="M 0 1 L 9 5 L 0 9 z" fill="#6e7681"/></marker></defs>
<text x="90.78014184397163" y="44" font-size="26" font-weight="700" fill="#e6edf3">aider: edit-format negotiation</text>
<text x="90.78014184397163" y="74" font-size="15" fill="#8b949e">Coder.create() -&gt; first matching edit_format class; SwitchCoder rebuilds mid-session</text>
<line x1="233" y1="110" x2="233" y2="794" stroke="#30363d" stroke-width="2" stroke-dasharray="8 6"/>
<rect x="113" y="82" width="238" height="56" rx="10" fill="#161b22" stroke="#30363d" stroke-width="1.5"/>
<text x="233" y="116" text-anchor="middle" font-size="16" font-weight="600" fill="#e6edf3">User</text>
<line x1="516" y1="110" x2="516" y2="794" stroke="#30363d" stroke-width="2" stroke-dasharray="8 6"/>
<rect x="397" y="82" width="238" height="56" rx="10" fill="#161b22" stroke="#30363d" stroke-width="1.5"/>
<text x="516" y="116" text-anchor="middle" font-size="16" font-weight="600" fill="#e6edf3">main.py</text>
<line x1="800" y1="110" x2="800" y2="794" stroke="#30363d" stroke-width="2" stroke-dasharray="8 6"/>
<rect x="681" y="82" width="238" height="56" rx="10" fill="#161b22" stroke="#30363d" stroke-width="1.5"/>
<text x="800" y="116" text-anchor="middle" font-size="16" font-weight="600" fill="#e6edf3">Coder.create</text>
<line x1="1084" y1="110" x2="1084" y2="794" stroke="#30363d" stroke-width="2" stroke-dasharray="8 6"/>
<rect x="965" y="82" width="238" height="56" rx="10" fill="#161b22" stroke="#30363d" stroke-width="1.5"/>
<text x="1084" y="116" text-anchor="middle" font-size="16" font-weight="600" fill="#e6edf3">model table</text>
<line x1="1367" y1="110" x2="1367" y2="794" stroke="#30363d" stroke-width="2" stroke-dasharray="8 6"/>
<rect x="1248" y="82" width="238" height="56" rx="10" fill="#161b22" stroke="#30363d" stroke-width="1.5"/>
<text x="1367" y="116" text-anchor="middle" font-size="16" font-weight="600" fill="#e6edf3">EditBlockCoder / …</text>
<line x1="233" y1="191" x2="506" y2="191" stroke="#58a6ff" stroke-width="2" marker-end="url(#arrc)"/>
<circle cx="296" cy="177" r="11" fill="#161b22" stroke="#58a6ff" stroke-width="1.5"/>
<text x="296" y="182" text-anchor="middle" font-size="12" font-weight="700" fill="#e6edf3">1</text>
<text x="314" y="182" font-size="14" fill="#e6edf3">/architect (or /model gpt-4o)</text>
<rect x="516" y="229" width="68" height="39" rx="6" fill="none" stroke="#58a6ff" stroke-width="2"/>
<text x="600" y="252" font-size="14" fill="#8b949e">raise SwitchCoder</text>
<rect x="113" y="286" width="1089" height="44" rx="8" fill="#1f6feb22" stroke="#1f6feb" stroke-width="1"/>
<text x="658" y="318" text-anchor="middle" font-size="14" fill="#e6edf3">SwitchCoder propagates out of coder.run() to main.py&#x27;s while True</text>
<line x1="516" y1="386" x2="790" y2="386" stroke="#58a6ff" stroke-width="2" marker-end="url(#arrc)"/>
<circle cx="580" cy="372" r="11" fill="#161b22" stroke="#58a6ff" stroke-width="1.5"/>
<text x="580" y="377" text-anchor="middle" font-size="12" font-weight="700" fill="#e6edf3">3</text>
<text x="598" y="377" font-size="14" fill="#e6edf3">Coder.create(edit_format=&#x27;architect&#x27;, from_coder=old)</text>
<line x1="800" y1="447" x2="1074" y2="447" stroke="#58a6ff" stroke-width="2" marker-end="url(#arrc)"/>
<circle cx="864" cy="433" r="11" fill="#161b22" stroke="#58a6ff" stroke-width="1.5"/>
<text x="864" y="438" text-anchor="middle" font-size="12" font-weight="700" fill="#e6edf3">4</text>
<text x="882" y="438" font-size="14" fill="#e6edf3">lookup main_model.edit_format</text>
<line x1="1084" y1="508" x2="810" y2="508" stroke="#6e7681" stroke-width="2" stroke-dasharray="7 5" marker-end="url(#arrr)"/>
<circle cx="864" cy="494" r="11" fill="#161b22" stroke="#6e7681" stroke-width="1.5"/>
<text x="864" y="499" text-anchor="middle" font-size="12" font-weight="700" fill="#e6edf3">5</text>
<text x="882" y="499" font-size="14" fill="#e6edf3">&#x27;diff&#x27; (YAML exact match, else substring heuristics, else &#x27;whole&#x27;)</text>
<rect x="800" y="547" width="68" height="39" rx="6" fill="none" stroke="#58a6ff" stroke-width="2"/>
<text x="884" y="570" font-size="14" fill="#8b949e">summarize chat — old ASSISTANT msgs would &#x27;confuse the new LLM&#x27;</text>
<line x1="800" y1="631" x2="1357" y2="631" stroke="#58a6ff" stroke-width="2" marker-end="url(#arrc)"/>
<circle cx="1006" cy="617" r="11" fill="#161b22" stroke="#58a6ff" stroke-width="1.5"/>
<text x="1006" y="622" text-anchor="middle" font-size="12" font-weight="700" fill="#e6edf3">7</text>
<text x="1024" y="622" font-size="14" fill="#e6edf3">first class whose edit_format attr matches</text>
<line x1="1367" y1="692" x2="526" y2="692" stroke="#6e7681" stroke-width="2" stroke-dasharray="7 5" marker-end="url(#arrr)"/>
<circle cx="864" cy="678" r="11" fill="#161b22" stroke="#6e7681" stroke-width="1.5"/>
<text x="864" y="683" text-anchor="middle" font-size="12" font-weight="700" fill="#e6edf3">8</text>
<text x="882" y="683" font-size="14" fill="#e6edf3">new coder instance</text>
<line x1="516" y1="753" x2="243" y2="753" stroke="#6e7681" stroke-width="2" stroke-dasharray="7 5" marker-end="url(#arrr)"/>
<circle cx="296" cy="739" r="11" fill="#161b22" stroke="#6e7681" stroke-width="1.5"/>
<text x="296" y="744" text-anchor="middle" font-size="12" font-weight="700" fill="#e6edf3">9</text>
<text x="314" y="744" font-size="14" fill="#e6edf3">coder.run() resumes mid-session</text>
</svg>