<svg xmlns="http://www.w3.org/2000/svg" viewBox="-180 -70 960 1656" width="1600" height="2760" font-family="system-ui, -apple-system, sans-serif">
<defs>
<marker id="arrow" viewBox="0 0 10 10" refX="8" refY="5" markerWidth="7" markerHeight="7" orient="auto-start-reverse"><path d="M 0 1 L 9 5 L 0 9 z" fill="#8a7a66"/></marker>
</defs>
<text x="-180" y="-36" font-size="26" font-weight="700" fill="#ece1d3">Codex CLI — one turn through the harness</text>
<text x="-180" y="-10" font-size="15" fill="#a89880">openai/codex @ a956835</text>
<g>
<path d="M 300.0 116 C 300.0 133.0, 300.0 133.0, 300.0 150" fill="none" stroke="#8a7a66" stroke-width="2" marker-end="url(#arrow)"/>
<text x="308.0" y="133.0" font-size="13" fill="#a89880">rpc</text>
<path d="M 300.0 246 C 300.0 263.0, 300.0 263.0, 300.0 280" fill="none" stroke="#8a7a66" stroke-width="2" marker-end="url(#arrow)"/>
<path d="M 300.0 376 C 300.0 393.0, 300.0 393.0, 300.0 410" fill="none" stroke="#8a7a66" stroke-width="2" marker-end="url(#arrow)"/>
<path d="M 300.0 506 C 300.0 523.0, 300.0 523.0, 300.0 540" fill="none" stroke="#8a7a66" stroke-width="2" marker-end="url(#arrow)"/>
<path d="M 300.0 636 C 300.0 653.0, 300.0 653.0, 300.0 670" fill="none" stroke="#8a7a66" stroke-width="2" marker-end="url(#arrow)"/>
<path d="M 300.0 766 C 300.0 783.0, 300.0 783.0, 300.0 800" fill="none" stroke="#8a7a66" stroke-width="2" marker-end="url(#arrow)"/>
<path d="M 300.0 896 C 300.0 913.0, 300.0 913.0, 300.0 930" fill="none" stroke="#8a7a66" stroke-width="2" marker-end="url(#arrow)"/>
<path d="M 300.0 1026 C 300.0 1043.0, 300.0 1043.0, 300.0 1060" fill="none" stroke="#8a7a66" stroke-width="2" marker-end="url(#arrow)"/>
<path d="M 300.0 1156 C 300.0 1173.0, 300.0 1173.0, 300.0 1190" fill="none" stroke="#8a7a66" stroke-width="2" marker-end="url(#arrow)"/>
<path d="M 300.0 1286 C 300.0 1303.0, 300.0 1303.0, 300.0 1320" fill="none" stroke="#8a7a66" stroke-width="2" marker-end="url(#arrow)"/>
<text x="308.0" y="1303.0" font-size="13" fill="#a89880">tool</text>
<path d="M 300.0 1416 C 300.0 1433.0, 300.0 1433.0, 300.0 1450" fill="none" stroke="#8a7a66" stroke-width="2" marker-end="url(#arrow)"/>
<path d="M 300.0 1546 C 300.0 1368.0, 300.0 1368.0, 300.0 1190" fill="none" stroke="#8a7a66" stroke-width="2" marker-end="url(#arrow)"/>
<path d="M -30.0 246 C -30.0 328.0, 300.0 328.0, 300.0 410" fill="none" stroke="#8a7a66" stroke-width="2" marker-end="url(#arrow)"/>
<text x="143.0" y="328.0" font-size="13" fill="#a89880">calls</text>
<path d="M -30.0 506 C -30.0 783.0, 300.0 783.0, 300.0 1060" fill="none" stroke="#8a7a66" stroke-width="2" marker-end="url(#arrow)"/>
<text x="143.0" y="783.0" font-size="13" fill="#a89880">retry</text>
<path d="M -30.0 506 C -30.0 848.0, 300.0 848.0, 300.0 1190" fill="none" stroke="#8a7a66" stroke-width="2" marker-end="url(#arrow)"/>
<text x="143.0" y="848.0" font-size="13" fill="#a89880">cons</text>
<path d="M -30.0 766 C -30.0 1108.0, 300.0 1108.0, 300.0 1450" fill="none" stroke="#8a7a66" stroke-width="2" marker-end="url(#arrow)"/>
<text x="143.0" y="1108.0" font-size="13" fill="#a89880">cond</text>
<path d="M -30.0 376 C -30.0 523.0, 300.0 523.0, 300.0 670" fill="none" stroke="#8a7a66" stroke-width="2" marker-end="url(#arrow)"/>
<text x="143.0" y="523.0" font-size="13" fill="#a89880">preempt</text>
<path d="M -30.0 116 C -30.0 68.0, 300.0 68.0, 300.0 20" fill="none" stroke="#8a7a66" stroke-width="2" marker-end="url(#arrow)"/>
<text x="143.0" y="68.0" font-size="13" fill="#a89880">same</text>
<path d="M -30.0 636 C -30.0 978.0, 300.0 978.0, 300.0 1320" fill="none" stroke="#8a7a66" stroke-width="2" marker-end="url(#arrow)"/>
<text x="143.0" y="978.0" font-size="13" fill="#a89880">stalls</text>
<path d="M 630.0 116 C 630.0 68.0, 300.0 68.0, 300.0 20" fill="none" stroke="#8a7a66" stroke-width="2" marker-end="url(#arrow)"/>
<text x="473.0" y="68.0" font-size="13" fill="#a89880">rpc</text>
<path d="M 630.0 896 C 630.0 1108.0, 300.0 1108.0, 300.0 1320" fill="none" stroke="#8a7a66" stroke-width="2" marker-end="url(#arrow)"/>
<text x="473.0" y="1108.0" font-size="13" fill="#a89880">gate</text>
<path d="M 630.0 1026 C 630.0 1173.0, 300.0 1173.0, 300.0 1320" fill="none" stroke="#8a7a66" stroke-width="2" marker-end="url(#arrow)"/>
<text x="473.0" y="1173.0" font-size="13" fill="#a89880">chain</text>
<path d="M 630.0 636 C 630.0 913.0, 300.0 913.0, 300.0 1190" fill="none" stroke="#8a7a66" stroke-width="2" marker-end="url(#arrow)"/>
<text x="473.0" y="913.0" font-size="13" fill="#a89880">route</text>
<path d="M 630.0 376 C 630.0 718.0, 300.0 718.0, 300.0 1060" fill="none" stroke="#8a7a66" stroke-width="2" marker-end="url(#arrow)"/>
<text x="473.0" y="718.0" font-size="13" fill="#a89880">ws</text>
<path d="M 630.0 1286 C 630.0 1368.0, 300.0 1368.0, 300.0 1450" fill="none" stroke="#8a7a66" stroke-width="2" marker-end="url(#arrow)"/>
<text x="473.0" y="1368.0" font-size="13" fill="#a89880">rollout</text>
<path d="M 630.0 636 C 630.0 653.0, 630.0 653.0, 630.0 670" fill="none" stroke="#8a7a66" stroke-width="2" marker-end="url(#arrow)"/>
<text x="638.0" y="653.0" font-size="13" fill="#a89880">spawn</text>
<path d="M 630.0 1156 C 630.0 1238.0, 300.0 1238.0, 300.0 1320" fill="none" stroke="#8a7a66" stroke-width="2" marker-end="url(#arrow)"/>
<text x="473.0" y="1238.0" font-size="13" fill="#a89880">1st</text>
<path d="M 630.0 506 C 630.0 523.0, 630.0 523.0, 630.0 540" fill="none" stroke="#8a7a66" stroke-width="2" marker-end="url(#arrow)"/>
<text x="638.0" y="523.0" font-size="13" fill="#a89880">wrap</text>
<path d="M 630.0 246 C 630.0 588.0, 300.0 588.0, 300.0 930" fill="none" stroke="#8a7a66" stroke-width="2" marker-end="url(#arrow)"/>
<text x="473.0" y="588.0" font-size="13" fill="#a89880">inject</text>
</g><g>
<rect x="190" y="20" width="220" height="96" rx="10" fill="#1f1a15" stroke="#3a2f26" stroke-width="1.5"/><rect x="190" y="20" width="5" height="96" rx="2" fill="#d08c4e"/>
<circle cx="212" cy="42" r="13" fill="#d08c4e"/><text x="212" y="47" text-anchor="middle" font-size="14" font-weight="700" fill="#161210">1</text>
<text x="234" y="48" font-size="15" font-weight="600" fill="#ece1d3">Submit: turn/start RPC</text><text x="234" y="68" font-size="12" fill="#a89880">tui/src/app_server_session.rs:1308</text>
<text x="204" y="104" font-size="11" fill="#a89880">1 source link · verified</text>
<rect x="190" y="150" width="220" height="96" rx="10" fill="#1f1a15" stroke="#3a2f26" stroke-width="1.5"/><rect x="190" y="150" width="5" height="96" rx="2" fill="#d08c4e"/>
<circle cx="212" cy="172" r="13" fill="#d08c4e"/><text x="212" y="177" text-anchor="middle" font-size="14" font-weight="700" fill="#161210">2</text>
<text x="234" y="178" font-size="15" font-weight="600" fill="#ece1d3">Route to core</text><text x="234" y="198" font-size="12" fill="#a89880">protocol/src/protocol.rs:622</text>
<text x="204" y="234" font-size="11" fill="#a89880">2 source links · verified</text>
<rect x="190" y="280" width="220" height="96" rx="10" fill="#1f1a15" stroke="#3a2f26" stroke-width="1.5"/><rect x="190" y="280" width="5" height="96" rx="2" fill="#d08c4e"/>
<circle cx="212" cy="302" r="13" fill="#d08c4e"/><text x="212" y="307" text-anchor="middle" font-size="14" font-weight="700" fill="#161210">3</text>
<text x="234" y="308" font-size="15" font-weight="600" fill="#ece1d3">Start task</text><text x="234" y="328" font-size="12" fill="#a89880">core/src/session/turn_input.rs:365</text>
<text x="204" y="364" font-size="11" fill="#a89880">2 source links · verified</text>
<rect x="190" y="410" width="220" height="96" rx="10" fill="#1f1a15" stroke="#3a2f26" stroke-width="1.5"/><rect x="190" y="410" width="5" height="96" rx="2" fill="#d08c4e"/>
<circle cx="212" cy="432" r="13" fill="#d08c4e"/><text x="212" y="437" text-anchor="middle" font-size="14" font-weight="700" fill="#161210">4</text>
<text x="234" y="438" font-size="15" font-weight="600" fill="#ece1d3">Task loop</text><text x="234" y="458" font-size="12" fill="#a89880">core/src/tasks/regular.rs:104</text>
<text x="204" y="494" font-size="11" fill="#a89880">2 source links · verified</text>
<rect x="190" y="540" width="220" height="96" rx="10" fill="#1f1a15" stroke="#3a2f26" stroke-width="1.5"/><rect x="190" y="540" width="5" height="96" rx="2" fill="#d08c4e"/>
<circle cx="212" cy="562" r="13" fill="#d08c4e"/><text x="212" y="567" text-anchor="middle" font-size="14" font-weight="700" fill="#161210">5</text>
<text x="234" y="568" font-size="15" font-weight="600" fill="#ece1d3">Turn preamble</text><text x="234" y="588" font-size="12" fill="#a89880">core/src/session/turn.rs:163</text>
<text x="204" y="624" font-size="11" fill="#a89880">1 source link · verified</text>
<rect x="190" y="670" width="220" height="96" rx="10" fill="#1f1a15" stroke="#3a2f26" stroke-width="1.5"/><rect x="190" y="670" width="5" height="96" rx="2" fill="#d08c4e"/>
<circle cx="212" cy="692" r="13" fill="#d08c4e"/><text x="212" y="697" text-anchor="middle" font-size="14" font-weight="700" fill="#161210">6</text>
<text x="234" y="698" font-size="15" font-weight="600" fill="#ece1d3">Drain + prompt hooks</text><text x="234" y="718" font-size="12" fill="#a89880">core/src/session/turn.rs:426</text>
<text x="204" y="754" font-size="11" fill="#a89880">1 source link · verified</text>
<rect x="190" y="800" width="220" height="96" rx="10" fill="#1f1a15" stroke="#3a2f26" stroke-width="1.5"/><rect x="190" y="800" width="5" height="96" rx="2" fill="#d08c4e"/>
<circle cx="212" cy="822" r="13" fill="#d08c4e"/><text x="212" y="827" text-anchor="middle" font-size="14" font-weight="700" fill="#161210">7</text>
<text x="234" y="828" font-size="15" font-weight="600" fill="#ece1d3">Step context</text><text x="234" y="848" font-size="12" fill="#a89880">core/src/session/turn.rs:461</text>
<text x="204" y="884" font-size="11" fill="#a89880">1 source link · verified</text>
<rect x="190" y="930" width="220" height="96" rx="10" fill="#1f1a15" stroke="#3a2f26" stroke-width="1.5"/><rect x="190" y="930" width="5" height="96" rx="2" fill="#d08c4e"/>
<circle cx="212" cy="952" r="13" fill="#d08c4e"/><text x="212" y="957" text-anchor="middle" font-size="14" font-weight="700" fill="#161210">8</text>
<text x="234" y="958" font-size="15" font-weight="600" fill="#ece1d3">Prompt build</text><text x="234" y="978" font-size="12" fill="#a89880">core/src/session/turn.rs:1583</text>
<text x="204" y="1014" font-size="11" fill="#a89880">1 source link · verified</text>
<rect x="190" y="1060" width="220" height="96" rx="10" fill="#1f1a15" stroke="#3a2f26" stroke-width="1.5"/><rect x="190" y="1060" width="5" height="96" rx="2" fill="#d08c4e"/>
<circle cx="212" cy="1082" r="13" fill="#d08c4e"/><text x="212" y="1087" text-anchor="middle" font-size="14" font-weight="700" fill="#161210">9</text>
<text x="234" y="1088" font-size="15" font-weight="600" fill="#ece1d3">Model call</text><text x="234" y="1108" font-size="12" fill="#a89880">core/src/client.rs:2218</text>
<text x="204" y="1144" font-size="11" fill="#a89880">2 source links · verified</text>
<rect x="190" y="1190" width="220" height="96" rx="10" fill="#1f1a15" stroke="#3a2f26" stroke-width="1.5"/><rect x="190" y="1190" width="5" height="96" rx="2" fill="#d08c4e"/>
<circle cx="212" cy="1212" r="13" fill="#d08c4e"/><text x="212" y="1217" text-anchor="middle" font-size="14" font-weight="700" fill="#161210">10</text>
<text x="234" y="1218" font-size="15" font-weight="600" fill="#ece1d3">Stream handling</text><text x="234" y="1238" font-size="12" fill="#a89880">core/src/session/turn.rs:2605</text>
<text x="204" y="1274" font-size="11" fill="#a89880">2 source links · verified</text>
<rect x="190" y="1320" width="220" height="96" rx="10" fill="#1f1a15" stroke="#3a2f26" stroke-width="1.5"/><rect x="190" y="1320" width="5" height="96" rx="2" fill="#d08c4e"/>
<circle cx="212" cy="1342" r="13" fill="#d08c4e"/><text x="212" y="1347" text-anchor="middle" font-size="14" font-weight="700" fill="#161210">11</text>
<text x="234" y="1348" font-size="15" font-weight="600" fill="#ece1d3">Approval (parked)</text><text x="234" y="1368" font-size="12" fill="#a89880">core/src/tools/approvals.rs:479</text>
<text x="204" y="1404" font-size="11" fill="#a89880">1 source link · verified</text>
<rect x="190" y="1450" width="220" height="96" rx="10" fill="#1f1a15" stroke="#3a2f26" stroke-width="1.5"/><rect x="190" y="1450" width="5" height="96" rx="2" fill="#d08c4e"/>
<circle cx="212" cy="1472" r="13" fill="#d08c4e"/><text x="212" y="1477" text-anchor="middle" font-size="14" font-weight="700" fill="#161210">12</text>
<text x="234" y="1478" font-size="15" font-weight="600" fill="#ece1d3">Loop or stop</text><text x="234" y="1498" font-size="12" fill="#a89880">core/src/session/turn.rs:2466</text>
<text x="204" y="1534" font-size="11" fill="#a89880">3 source links · verified</text>
<rect x="-140" y="20" width="220" height="96" rx="10" fill="#1f1a15" stroke="#3a2f26" stroke-width="1.5"/><rect x="-140" y="20" width="5" height="96" rx="2" fill="#d08c4e"/>
<text x="-96" y="48" font-size="15" font-weight="600" fill="#ece1d3">exec: in-process server</text><text x="-96" y="68" font-size="12" fill="#a89880">exec/src/lib.rs:986</text>
<text x="-126" y="104" font-size="11" fill="#a89880">1 source link · verified</text>
<rect x="-140" y="150" width="220" height="96" rx="10" fill="#1f1a15" stroke="#3a2f26" stroke-width="1.5"/><rect x="-140" y="150" width="5" height="96" rx="2" fill="#d08c4e"/>
<text x="-96" y="178" font-size="15" font-weight="600" fill="#ece1d3">RegularTask::run</text><text x="-96" y="198" font-size="12" fill="#a89880">core/src/tasks/regular.rs:40</text>
<text x="-126" y="234" font-size="11" fill="#a89880">1 source link · verified</text>
<rect x="-140" y="280" width="220" height="96" rx="10" fill="#1f1a15" stroke="#3a2f26" stroke-width="1.5"/><rect x="-140" y="280" width="5" height="96" rx="2" fill="#d08c4e"/>
<text x="-96" y="308" font-size="15" font-weight="600" fill="#ece1d3">Mid-stream steering</text><text x="-96" y="328" font-size="12" fill="#a89880">core/src/session/input_queue.rs:246</text>
<text x="-126" y="364" font-size="11" fill="#a89880">1 source link · verified</text>
<rect x="-140" y="410" width="220" height="96" rx="10" fill="#1f1a15" stroke="#3a2f26" stroke-width="1.5"/><rect x="-140" y="410" width="5" height="96" rx="2" fill="#d08c4e"/>
<text x="-96" y="438" font-size="15" font-weight="600" fill="#ece1d3">Inner loops</text><text x="-96" y="458" font-size="12" fill="#a89880">core/src/session/turn.rs:1647</text>
<text x="-126" y="494" font-size="11" fill="#a89880">2 source links · verified</text>
<rect x="-140" y="540" width="220" height="96" rx="10" fill="#1f1a15" stroke="#3a2f26" stroke-width="1.5"/><rect x="-140" y="540" width="5" height="96" rx="2" fill="#d08c4e"/>
<text x="-96" y="568" font-size="15" font-weight="600" fill="#ece1d3">Elicitation pause</text><text x="-96" y="588" font-size="12" fill="#a89880">core/src/elicitation.rs:6</text>
<text x="-126" y="624" font-size="11" fill="#a89880">1 source link · verified</text>
<rect x="-140" y="670" width="220" height="96" rx="10" fill="#1f1a15" stroke="#3a2f26" stroke-width="1.5"/><rect x="-140" y="670" width="5" height="96" rx="2" fill="#d08c4e"/>
<text x="-96" y="698" font-size="15" font-weight="600" fill="#ece1d3">No max_turns</text><text x="-96" y="718" font-size="12" fill="#a89880">turn.rs:426 — condition-driven</text>
<text x="-126" y="754" font-size="11" fill="#a89880">1 source link · verified</text>
<rect x="520" y="20" width="220" height="96" rx="10" fill="#1f1a15" stroke="#3a2f26" stroke-width="1.5"/><rect x="520" y="20" width="5" height="96" rx="2" fill="#d08c4e"/>
<text x="564" y="48" font-size="15" font-weight="600" fill="#ece1d3">App-server JSON-RPC</text><text x="564" y="68" font-size="12" fill="#a89880">app-server-protocol/.../common.rs:1032</text>
<text x="534" y="104" font-size="11" fill="#a89880">1 source link · verified</text>
<rect x="520" y="150" width="220" height="96" rx="10" fill="#1f1a15" stroke="#3a2f26" stroke-width="1.5"/><rect x="520" y="150" width="5" height="96" rx="2" fill="#d08c4e"/>
<text x="564" y="178" font-size="15" font-weight="600" fill="#ece1d3">Skills = prompt injection</text><text x="564" y="198" font-size="12" fill="#a89880">skills/src/selection.rs:42</text>
<text x="534" y="234" font-size="11" fill="#a89880">1 source link · verified</text>
<rect x="520" y="280" width="220" height="96" rx="10" fill="#1f1a15" stroke="#3a2f26" stroke-width="1.5"/><rect x="520" y="280" width="5" height="96" rx="2" fill="#d08c4e"/>
<text x="564" y="308" font-size="15" font-weight="600" fill="#ece1d3">Responses-API only</text><text x="564" y="328" font-size="12" fill="#a89880">model-provider-info/src/lib.rs:104</text>
<text x="534" y="364" font-size="11" fill="#a89880">2 source links · verified</text>
<rect x="520" y="410" width="220" height="96" rx="10" fill="#1f1a15" stroke="#3a2f26" stroke-width="1.5"/><rect x="520" y="410" width="5" height="96" rx="2" fill="#d08c4e"/>
<text x="564" y="438" font-size="15" font-weight="600" fill="#ece1d3">MCP wrapped (client-only)</text><text x="564" y="458" font-size="12" fill="#a89880">config/src/mcp_types.rs:28</text>
<text x="534" y="494" font-size="11" fill="#a89880">1 source link · verified</text>
<rect x="520" y="540" width="220" height="96" rx="10" fill="#1f1a15" stroke="#3a2f26" stroke-width="1.5"/><rect x="520" y="540" width="5" height="96" rx="2" fill="#d08c4e"/>
<text x="564" y="568" font-size="15" font-weight="600" fill="#ece1d3">ToolRegistry + ToolExecutor</text><text x="564" y="588" font-size="12" fill="#a89880">core/src/tools/registry.rs:296</text>
<text x="534" y="624" font-size="11" fill="#a89880">2 source links · verified</text>
<rect x="520" y="670" width="220" height="96" rx="10" fill="#1f1a15" stroke="#3a2f26" stroke-width="1.5"/><rect x="520" y="670" width="5" height="96" rx="2" fill="#d08c4e"/>
<text x="564" y="698" font-size="15" font-weight="600" fill="#ece1d3">Sub-agents V1/V2</text><text x="564" y="718" font-size="12" fill="#a89880">core/src/agent/api.rs:55</text>
<text x="534" y="754" font-size="11" fill="#a89880">2 source links · verified</text>
<rect x="520" y="800" width="220" height="96" rx="10" fill="#1f1a15" stroke="#3a2f26" stroke-width="1.5"/><rect x="520" y="800" width="5" height="96" rx="2" fill="#d08c4e"/>
<text x="564" y="828" font-size="15" font-weight="600" fill="#ece1d3">4-layer sandbox stack</text><text x="564" y="848" font-size="12" fill="#a89880">sandboxing/src/lib.rs:1</text>
<text x="534" y="884" font-size="11" fill="#a89880">2 source links · verified</text>
<rect x="520" y="930" width="220" height="96" rx="10" fill="#1f1a15" stroke="#3a2f26" stroke-width="1.5"/><rect x="520" y="930" width="5" height="96" rx="2" fill="#d08c4e"/>
<text x="564" y="958" font-size="15" font-weight="600" fill="#ece1d3">Per-action approvals</text><text x="564" y="978" font-size="12" fill="#a89880">core/src/tools/approvals.rs:66</text>
<text x="534" y="1014" font-size="11" fill="#a89880">2 source links · verified</text>
<rect x="520" y="1060" width="220" height="96" rx="10" fill="#1f1a15" stroke="#3a2f26" stroke-width="1.5"/><rect x="520" y="1060" width="5" height="96" rx="2" fill="#d08c4e"/>
<text x="564" y="1088" font-size="15" font-weight="600" fill="#ece1d3">Hooks (10 events)</text><text x="564" y="1108" font-size="12" fill="#a89880">core/src/tools/approvals.rs:505</text>
<text x="534" y="1144" font-size="11" fill="#a89880">1 source link · verified</text>
<rect x="520" y="1190" width="220" height="96" rx="10" fill="#1f1a15" stroke="#3a2f26" stroke-width="1.5"/><rect x="520" y="1190" width="5" height="96" rx="2" fill="#d08c4e"/>
<text x="564" y="1218" font-size="15" font-weight="600" fill="#ece1d3">Rollout JSONL sessions</text><text x="564" y="1238" font-size="12" fill="#a89880">rollout/src/list.rs:438</text>
<text x="534" y="1274" font-size="11" fill="#a89880">1 source link · verified</text>
</g>
<g font-size="12" fill="#a89880">
<rect x="450" y="1551" width="12" height="12" rx="2" fill="#d08c4e"/><text x="467" y="1562">verified</text>
<rect x="555" y="1551" width="12" height="12" rx="2" fill="#7c8aa0"/><text x="572" y="1562">docs</text>
<rect x="660" y="1551" width="12" height="12" rx="2" fill="#8a7a66"/><text x="677" y="1562">inferred</text>
</g></svg>